# Blender 4.3.2
# www.blender.org
mtllib 002 MasterChef Can.mtl
o convex_0
v 0.004318 0.030373 -0.001919
v -0.004929 -0.030700 -0.040785
v -0.004929 -0.030700 -0.042017
v 0.030854 -0.004786 -0.041401
v -0.017261 0.025439 -0.042637
v -0.018498 -0.024528 -0.000683
v 0.025298 -0.017125 -0.000683
v -0.030215 0.003844 -0.000683
v -0.030215 -0.007250 -0.042017
v 0.023444 0.019889 -0.042637
v 0.028377 0.011254 -0.000683
v 0.019742 -0.023912 -0.042637
v 0.008020 -0.029462 -0.001303
v -0.017883 0.024824 -0.000683
v -0.003691 0.030996 -0.038933
v -0.027750 0.013101 -0.042637
v -0.019731 -0.023296 -0.042637
v -0.025903 -0.016508 -0.000683
v 0.016046 0.026056 -0.000683
v 0.010490 0.029141 -0.041401
v 0.030226 -0.003548 -0.001303
v 0.030226 0.006929 -0.042017
v -0.008009 -0.029462 -0.000683
v -0.025903 0.016187 -0.000683
v 0.009873 -0.029462 -0.040785
v 0.027146 -0.015893 -0.041401
v -0.009246 0.029141 -0.001303
v 0.018510 -0.024528 -0.001919
v -0.024665 -0.018978 -0.040785
v -0.023433 0.020506 -0.041401
v -0.030843 0.003227 -0.040785
v -0.030215 -0.004786 -0.001919
v -0.016645 -0.026377 -0.041401
v 0.022828 0.020506 -0.000683
v 0.019742 0.024207 -0.041401
v 0.027762 0.014334 -0.041401
v -0.012326 0.028526 -0.042017
v 0.028384 -0.011568 -0.002536
v 0.004318 0.030373 -0.042637
v 0.030226 0.004466 -0.000683
v 0.004318 -0.030078 -0.000683
v -0.028988 0.009399 -0.000683
v -0.028988 -0.011568 -0.041401
v 0.004940 -0.030700 -0.039548
v -0.003074 0.030373 -0.000683
v 0.023444 -0.020827 -0.040785
v 0.029610 -0.008488 -0.042637
v 0.013575 -0.027615 -0.003771
v 0.016655 -0.026377 -0.042017
v -0.013564 -0.027615 -0.002536
v -0.011711 -0.028846 -0.041401
v -0.021585 -0.022675 -0.040169
v 0.012953 0.027909 -0.003151
v -0.028988 -0.009720 -0.000683
v -0.028367 0.012486 -0.040169
v 0.024675 0.019267 -0.040169
v 0.026530 0.015571 -0.000683
v -0.019731 0.023591 -0.003771
v -0.006161 -0.030078 -0.002536
v 0.030854 0.004466 -0.039548
v 0.020974 -0.022675 -0.003771
v -0.017883 0.025439 -0.040785
v 0.010490 -0.028846 -0.042637
v 0.029000 -0.011568 -0.040169
vn 0.9204 -0.3388 -0.1954
vn -0.0000 -0.0000 1.0000
vn -0.0000 -0.0000 -1.0000
vn -0.0889 -0.0196 -0.9958
vn 0.2194 -0.3530 0.9095
vn -0.4832 0.4108 -0.7731
vn -0.6321 0.0530 -0.7731
vn -0.9999 -0.0022 0.0157
vn -0.9982 -0.0603 0.0037
vn 0.6331 0.7737 0.0223
vn 0.9490 0.3151 0.0095
vn 0.5488 0.2490 -0.7980
vn -0.4459 0.8948 0.0202
vn -0.2771 0.9608 0.0064
vn 0.9736 -0.2270 0.0223
vn 0.8012 -0.2663 0.5359
vn 0.8775 -0.4790 0.0253
vn 0.0775 0.9970 -0.0000
vn 0.1958 0.9807 -0.0000
vn 0.2521 0.4599 -0.8515
vn 0.2646 0.4962 -0.8269
vn -0.0689 0.3013 -0.9510
vn -0.1158 0.9079 -0.4029
vn 0.3203 -0.0731 0.9445
vn 0.9650 0.2618 0.0156
vn 0.9649 0.2621 0.0158
vn 0.9650 0.2619 0.0157
vn 0.2102 -0.3404 0.9165
vn -0.9764 0.2156 0.0120
vn -0.4270 -0.2454 -0.8703
vn -0.6145 -0.4143 -0.6714
vn -0.8639 -0.5037 0.0044
vn -0.0000 -1.0000 -0.0000
vn 0.2461 -0.9692 0.0116
vn -0.0021 -0.9999 0.0161
vn -0.0026 -0.9999 0.0161
vn -0.0020 -0.9999 0.0160
vn 0.1670 -0.9858 0.0185
vn 0.0027 0.9999 0.0162
vn 0.1332 0.5897 0.7965
vn -0.1834 0.4893 0.8526
vn -0.1976 0.9801 0.0191
vn 0.8008 -0.5986 0.0182
vn 0.6951 -0.5753 -0.4311
vn 0.1544 0.0336 -0.9874
vn 0.7040 0.0004 -0.7102
vn 0.4568 -0.2922 -0.8402
vn 0.3216 -0.9468 0.0151
vn 0.4199 -0.8546 0.3054
vn 0.5262 -0.8502 0.0149
vn 0.4147 -0.9099 0.0039
vn -0.3987 -0.8476 0.3502
vn -0.5263 -0.8502 0.0146
vn -0.4475 -0.8943 0.0070
vn -0.2637 -0.9646 -0.0000
vn -0.2628 -0.9649 0.0004
vn -0.2638 -0.9646 0.0018
vn -0.2115 -0.4935 -0.8436
vn -0.2992 -0.5980 -0.7436
vn -0.3200 -0.9473 0.0147
vn -0.7345 -0.6781 0.0256
vn -0.6876 -0.6324 -0.3568
vn -0.7695 -0.6385 0.0156
vn -0.6194 -0.7332 -0.2806
vn -0.5982 -0.8013 0.0091
vn 0.3012 0.9045 0.3019
vn 0.2761 0.9610 0.0132
vn 0.5098 0.8602 0.0072
vn 0.4706 0.8824 -0.0019
vn -0.8434 -0.0762 0.5319
vn -0.9712 -0.2377 0.0146
vn -0.9623 -0.2716 0.0123
vn -0.9102 -0.4138 0.0188
vn -0.8544 0.5125 -0.0856
vn -0.8514 0.5245 0.0040
vn -0.9489 0.2651 -0.1709
vn -0.9102 0.4138 0.0180
vn -0.9661 0.2580 0.0050
vn 0.7062 0.7079 0.0108
vn 0.7179 0.6698 -0.1896
vn 0.7903 0.5578 -0.2536
vn 0.8488 0.5286 0.0096
vn 0.9192 0.3934 0.0159
vn 0.7998 0.6000 0.0186
vn -0.7228 0.6712 0.1647
vn -0.7634 0.6456 0.0222
vn -0.0029 -0.9999 0.0162
vn -0.0480 -0.9612 0.2715
vn -0.2643 -0.9644 0.0072
vn -0.3041 -0.9526 0.0132
vn 0.9999 -0.0028 0.0159
vn 0.9999 -0.0032 0.0158
vn 0.9999 -0.0018 0.0161
vn 0.9774 0.0415 -0.2073
vn 0.9999 -0.0012 0.0162
vn 0.9650 0.2616 0.0156
vn 0.6938 -0.6771 0.2455
vn 0.7829 -0.6217 0.0212
vn 0.6390 -0.7692 0.0042
vn 0.6052 -0.7960 0.0087
vn 0.6245 -0.7810 0.0051
vn -0.6357 0.7418 -0.2136
vn -0.5071 0.8449 -0.1704
vn -0.4833 0.8754 0.0134
vn -0.5693 0.8221 0.0126
vn -0.6646 0.7472 0.0041
vn -0.0241 -0.1312 -0.9911
vn 0.0953 -0.9197 -0.3810
vn 0.1736 -0.9503 -0.2586
vn 0.3066 -0.5749 -0.7586
vn 0.3812 -0.9077 -0.1753
vn 0.9652 -0.2610 0.0158
vn 0.9175 -0.3975 0.0150
vn 0.9525 -0.2815 -0.1159
s 1
f 26//1 47//1 64//1
f 6//2 7//2 8//2
f 8//2 7//2 11//2
f 5//3 10//3 12//3
f 8//2 11//2 14//2
f 5//3 12//3 16//3
f 9//4 16//4 17//4
f 16//3 12//3 17//3
f 6//2 8//2 18//2
f 14//2 11//2 19//2
f 7//2 6//2 23//2
f 8//2 14//2 24//2
f 7//5 13//5 28//5
f 5//6 16//6 30//6
f 16//7 9//7 31//7
f 8//8 31//8 32//8
f 31//9 9//9 32//9
f 19//2 11//2 34//2
f 19//10 34//10 35//10
f 11//11 22//11 36//11
f 22//12 10//12 36//12
f 14//13 27//13 37//13
f 27//14 15//14 37//14
f 4//15 21//15 38//15
f 21//16 7//16 38//16
f 7//17 26//17 38//17
f 10//3 5//3 39//3
f 15//18 1//18 39//18
f 1//19 20//19 39//19
f 35//20 10//20 39//20
f 20//21 35//21 39//21
f 5//22 37//22 39//22
f 37//23 15//23 39//23
f 11//2 7//2 40//2
f 7//24 21//24 40//24
f 22//25 11//26 40//27
f 13//28 7//28 41//28
f 7//2 23//2 41//2
f 8//2 24//2 42//2
f 31//29 8//29 42//29
f 9//30 17//30 43//30
f 17//31 29//31 43//31
f 29//32 18//32 43//32
f 2//33 3//33 44//33
f 25//34 13//34 44//34
f 41//35 2//36 44//37
f 13//38 41//38 44//38
f 1//39 15//39 45//39
f 19//40 1//40 45//40
f 14//2 19//2 45//2
f 27//41 14//41 45//41
f 15//42 27//42 45//42
f 26//43 7//43 46//43
f 12//44 26//44 46//44
f 12//3 10//3 47//3
f 10//45 22//45 47//45
f 22//46 4//46 47//46
f 26//47 12//47 47//47
f 13//48 25//48 48//48
f 28//49 13//49 48//49
f 28//50 48//50 49//50
f 48//51 25//51 49//51
f 23//52 6//52 50//52
f 6//53 33//53 50//53
f 50//54 33//54 51//54
f 3//55 2//56 51//57
f 17//58 3//58 51//58
f 33//59 17//59 51//59
f 23//60 50//60 51//60
f 6//61 18//61 52//61
f 29//62 17//62 52//62
f 18//63 29//63 52//63
f 17//64 33//64 52//64
f 33//65 6//65 52//65
f 1//66 19//66 53//66
f 20//67 1//67 53//67
f 19//68 35//68 53//68
f 35//69 20//69 53//69
f 18//2 8//2 54//2
f 8//70 32//70 54//70
f 32//71 9//71 54//71
f 9//72 43//72 54//72
f 43//73 18//73 54//73
f 30//74 16//74 55//74
f 24//75 30//75 55//75
f 16//76 31//76 55//76
f 42//77 24//77 55//77
f 31//78 42//78 55//78
f 35//79 34//79 56//79
f 10//80 35//80 56//80
f 36//81 10//81 56//81
f 36//82 56//82 57//82
f 34//2 11//2 57//2
f 11//83 36//83 57//83
f 56//84 34//84 57//84
f 24//85 14//85 58//85
f 30//86 24//86 58//86
f 2//36 41//35 59//87
f 41//88 23//88 59//88
f 51//57 2//56 59//89
f 23//90 51//90 59//90
f 21//91 4//92 60//93
f 4//94 22//94 60//94
f 40//95 21//91 60//93
f 22//25 40//27 60//96
f 7//97 28//97 61//97
f 46//98 7//98 61//98
f 12//99 46//99 61//99
f 28//100 49//100 61//100
f 49//101 12//101 61//101
f 5//102 30//102 62//102
f 37//103 5//103 62//103
f 14//104 37//104 62//104
f 58//105 14//105 62//105
f 30//106 58//106 62//106
f 3//107 17//107 63//107
f 17//3 12//3 63//3
f 44//108 3//108 63//108
f 25//109 44//109 63//109
f 12//110 49//110 63//110
f 49//111 25//111 63//111
f 4//112 38//112 64//112
f 38//113 26//113 64//113
f 47//114 4//114 64//114
o convex_1
v 0.009258 0.029141 -0.000683
v -0.006161 -0.030700 0.039412
v -0.006161 -0.030700 0.038179
v -0.030215 0.008167 0.039412
v 0.026530 0.016187 0.041266
v 0.007403 -0.029462 -0.000683
v -0.029605 -0.007250 -0.000683
v 0.029000 -0.009720 0.000554
v 0.021595 -0.022058 0.041887
v -0.014181 0.027909 0.041266
v -0.024048 0.018651 -0.000683
v -0.025897 -0.016508 0.041887
v -0.018493 -0.024528 -0.000683
v 0.027146 0.014334 -0.000683
v 0.009873 0.028526 0.041887
v 0.030854 -0.005403 0.040650
v -0.007393 0.029757 0.000554
v 0.019125 -0.023912 -0.000683
v 0.011722 -0.028846 0.041266
v 0.018510 0.025439 0.037566
v 0.004323 0.030996 0.039412
v -0.025287 0.017419 0.041887
v 0.030226 0.003844 -0.000683
v -0.030843 -0.004786 0.041266
v -0.030215 0.003844 -0.000063
v -0.016028 -0.026376 0.041887
v -0.008624 -0.029462 0.001171
v 0.030854 0.005697 0.040033
v 0.020363 0.022976 -0.000683
v 0.027152 -0.015886 0.038179
v -0.026518 -0.017124 0.038800
v -0.017883 0.024824 -0.000683
v -0.025897 -0.016508 -0.000063
v -0.020968 0.023591 0.040033
v -0.007393 0.030373 0.040650
v 0.004940 -0.030700 0.041266
v -0.017261 -0.026376 0.040033
v 0.024060 -0.018978 0.001171
v -0.027750 0.012486 -0.000683
v -0.025903 0.018036 0.039412
v -0.002459 0.030373 -0.000683
v 0.030226 -0.000463 0.041887
v -0.004306 -0.030078 -0.000683
v 0.020363 -0.023912 0.038179
v 0.012953 0.028526 0.040650
v 0.025298 0.018651 0.039412
v -0.028983 -0.012190 0.037566
v 0.015423 0.026671 0.003642
v 0.014192 -0.026992 -0.000683
v -0.021585 -0.022058 0.001171
v 0.030226 -0.002933 -0.000683
v 0.027762 0.014949 0.038800
v 0.029616 0.008167 0.004259
v -0.030843 0.004466 0.041266
v -0.012943 0.027909 0.003642
v 0.016040 -0.026992 0.040033
v 0.009258 -0.030078 0.038179
v 0.004323 0.030373 0.001171
v 0.005556 -0.030078 0.001171
v -0.012333 -0.028846 0.036945
v -0.014796 -0.026992 0.001171
v 0.027152 -0.014038 -0.000683
v 0.029000 -0.012190 0.038800
v -0.019115 -0.025144 0.040033
vn -0.7342 -0.6789 -0.0072
vn -0.0000 -0.0000 -1.0000
vn -0.0000 -0.0000 1.0000
vn -0.0280 0.0886 0.9957
vn -0.9982 -0.0534 -0.0263
vn -0.2626 -0.1689 -0.9500
vn -0.4698 0.5388 0.6993
vn -0.7071 0.7064 -0.0322
vn -0.5347 0.8449 -0.0150
vn -0.0328 0.3266 0.9446
vn 0.0314 0.7419 0.6698
vn -0.0000 -1.0000 -0.0000
vn 0.0410 -0.1501 0.9878
vn -0.1200 -0.6852 0.7184
vn 0.0105 -0.0919 0.9957
vn -0.3424 -0.9116 0.2275
vn -0.9618 0.2721 -0.0298
vn -0.3519 0.0330 -0.9354
vn -0.8708 0.3805 0.3113
vn -0.7461 0.6654 -0.0243
vn -0.7237 0.6057 0.3308
vn -0.8569 0.5145 -0.0317
vn -0.9163 0.4004 -0.0132
vn -0.2540 0.7058 -0.6613
vn -0.1277 0.9917 -0.0152
vn -0.0537 0.9985 -0.0064
vn 0.0774 0.0543 0.9955
vn 0.4234 -0.1692 0.8900
vn 0.6225 0.1667 0.7646
vn 0.9233 0.0213 0.3834
vn -0.1508 -0.9883 -0.0230
vn -0.3207 -0.8197 -0.4746
vn 0.7617 -0.6442 0.0691
vn 0.7112 -0.7027 -0.0227
vn 0.7635 -0.6457 -0.0098
vn 0.3392 0.4154 0.8440
vn 0.1836 0.8704 0.4568
vn 0.2765 0.9609 -0.0104
vn 0.7863 0.6171 -0.0302
vn 0.7086 0.7056 -0.0111
vn 0.5739 0.6559 0.4904
vn 0.6010 0.7039 0.3784
vn -0.9715 -0.2367 -0.0148
vn -0.8909 -0.3613 0.2751
vn -0.8891 -0.3804 0.2547
vn -0.9270 -0.3735 -0.0332
vn -0.8922 -0.4510 -0.0214
vn 0.4766 0.8585 -0.1891
vn 0.5854 0.8104 -0.0238
vn 0.3842 0.9230 -0.0206
vn 0.4805 0.8769 -0.0119
vn -0.7032 -0.6227 -0.3432
vn -0.7871 -0.6165 -0.0223
vn 0.9829 -0.1823 -0.0258
vn 0.9999 -0.0002 -0.0153
vn 0.9999 -0.0008 -0.0152
vn 0.9999 -0.0005 -0.0153
vn 0.9999 -0.0000 -0.0154
vn 0.8988 0.3377 0.2796
vn 0.8343 0.5304 0.1506
vn 0.8306 0.5565 -0.0216
vn 0.9517 0.2794 -0.1270
vn 0.9860 0.1651 -0.0227
vn 0.9488 0.3156 -0.0110
vn 0.9336 0.3578 -0.0201
vn -0.8488 0.3448 0.4008
vn -0.1238 0.0002 0.9923
vn -0.1159 0.0021 0.9933
vn -0.1223 0.0006 0.9925
vn -0.1246 -0.0000 0.9922
vn -0.9872 0.1588 -0.0174
vn -0.9999 -0.0000 -0.0152
vn -0.5189 0.8547 -0.0171
vn -0.4007 0.8978 -0.1829
vn -0.3421 0.9396 -0.0113
vn -0.3231 0.9462 -0.0146
vn 0.4578 -0.7143 0.5293
vn 0.6201 -0.7644 0.1762
vn 0.5749 -0.8180 -0.0183
vn 0.5294 -0.8480 -0.0240
vn 0.4183 -0.9081 -0.0190
vn 0.2598 -0.9502 0.1718
vn 0.3417 -0.9393 -0.0312
vn 0.4046 -0.9135 0.0414
vn 0.2366 0.9715 -0.0158
vn 0.0977 0.9289 -0.3573
vn 0.0044 0.9999 -0.0163
vn 0.0043 -0.9999 -0.0155
vn 0.0034 -0.9999 -0.0158
vn 0.0040 -0.9999 -0.0156
vn 0.0506 -0.9618 -0.2689
vn 0.0030 -0.9999 -0.0159
vn 0.2897 -0.9567 -0.0290
vn 0.1333 -0.9910 -0.0133
vn -0.2854 -0.9583 -0.0122
vn -0.2877 -0.9577 -0.0000
vn -0.2871 -0.9579 -0.0034
vn -0.2853 -0.9583 -0.0131
vn -0.3483 -0.9199 0.1800
vn -0.4554 -0.8901 -0.0148
vn -0.3332 -0.8327 -0.4423
vn -0.5488 -0.8357 -0.0213
vn -0.5516 -0.8339 -0.0211
vn -0.5471 -0.8368 -0.0214
vn -0.3714 -0.9282 -0.0225
vn 0.7238 -0.5884 -0.3604
vn 0.8430 -0.5373 -0.0255
vn 0.8591 -0.2378 -0.4532
vn 0.9657 -0.2593 -0.0167
vn 0.7236 -0.3584 0.5898
vn 0.7866 -0.4621 0.4094
vn 0.9216 -0.3872 -0.0250
vn 0.8956 -0.4443 -0.0211
vn -0.5773 -0.5774 0.5773
vn -0.7276 -0.6298 0.2720
vn -0.5194 -0.7817 0.3451
vn -0.5533 -0.8327 -0.0210
vn -0.6318 -0.7749 -0.0214
s 1
f 95//115 114//115 128//115
f 65//116 70//116 71//116
f 65//116 71//116 75//116
f 71//116 70//116 77//116
f 70//116 65//116 78//116
f 76//117 73//117 79//117
f 70//116 78//116 82//116
f 79//118 74//118 86//118
f 76//117 79//117 86//117
f 82//116 78//116 87//116
f 71//119 88//119 89//119
f 73//117 76//117 90//117
f 78//116 65//116 93//116
f 65//116 75//116 96//116
f 71//120 77//120 97//120
f 86//121 74//121 98//121
f 96//122 75//122 98//122
f 74//123 96//123 98//123
f 74//124 79//124 99//124
f 79//125 85//125 99//125
f 66//126 67//126 100//126
f 83//127 73//127 100//127
f 90//128 66//128 100//128
f 73//129 90//129 100//129
f 66//130 90//130 101//130
f 75//116 71//116 103//116
f 89//131 68//131 103//131
f 71//132 89//132 103//132
f 68//133 86//133 104//133
f 98//134 75//134 104//134
f 86//135 98//135 104//135
f 75//136 103//136 104//136
f 103//137 68//137 104//137
f 65//116 96//116 105//116
f 96//138 81//138 105//138
f 81//139 99//139 105//139
f 99//140 85//140 105//140
f 69//141 79//141 106//141
f 79//117 73//117 106//117
f 73//142 80//142 106//142
f 92//143 69//143 106//143
f 80//144 92//144 106//144
f 77//116 70//116 107//116
f 67//145 91//145 107//145
f 91//146 77//146 107//146
f 94//147 73//147 108//147
f 82//148 102//148 108//148
f 102//149 94//149 108//149
f 79//150 69//150 109//150
f 85//151 79//151 109//151
f 65//152 85//152 109//152
f 78//153 93//153 110//153
f 93//154 84//154 110//154
f 109//155 69//155 110//155
f 84//156 109//156 110//156
f 88//157 71//157 111//157
f 76//158 88//158 111//158
f 95//159 76//159 111//159
f 71//160 97//160 111//160
f 97//161 95//161 111//161
f 93//162 65//162 112//162
f 84//163 93//163 112//163
f 65//164 109//164 112//164
f 109//165 84//165 112//165
f 70//116 82//116 113//116
f 97//166 77//166 114//166
f 95//167 97//167 114//167
f 80//168 72//168 115//168
f 82//116 87//116 115//116
f 92//169 80//170 115//171
f 87//172 92//169 115//171
f 69//173 92//173 116//173
f 110//174 69//174 116//174
f 78//175 110//175 116//175
f 87//176 78//176 117//176
f 92//177 87//177 117//177
f 116//178 92//178 117//178
f 78//179 116//179 117//179
f 86//180 68//180 118//180
f 76//181 86//182 118//183
f 88//184 76//181 118//183
f 68//185 89//185 118//185
f 89//186 88//186 118//186
f 96//187 74//187 119//187
f 81//188 96//188 119//188
f 74//189 99//189 119//189
f 99//190 81//190 119//190
f 73//191 83//191 120//191
f 108//192 73//192 120//192
f 82//193 108//193 120//193
f 113//194 82//194 120//194
f 113//195 120//195 121//195
f 83//196 100//196 121//196
f 70//197 113//197 121//197
f 120//198 83//198 121//198
f 85//199 65//199 122//199
f 65//200 105//200 122//200
f 105//201 85//201 122//201
f 100//202 67//203 123//204
f 107//205 70//205 123//205
f 67//203 107//206 123//204
f 70//207 121//207 123//207
f 121//208 100//208 123//208
f 67//209 66//210 124//211
f 91//212 67//209 124//211
f 66//213 101//213 124//213
f 124//214 101//214 125//214
f 77//215 91//215 125//215
f 101//216 77//217 125//218
f 91//219 124//219 125//219
f 102//220 82//220 126//220
f 94//221 102//221 126//221
f 115//222 72//222 126//222
f 82//116 115//116 126//116
f 72//223 80//223 127//223
f 80//224 73//224 127//224
f 73//225 94//225 127//225
f 126//226 72//226 127//226
f 94//227 126//227 127//227
f 90//228 76//228 128//228
f 76//229 95//229 128//229
f 101//230 90//230 128//230
f 77//217 101//216 128//231
f 114//232 77//232 128//232
