# Blender 4.3.2
# www.blender.org
mtllib 008 Pudding Box.mtl
o convex_0
v -0.019953 -0.030740 -0.007613
v 0.012097 0.042888 -0.043087
v 0.012781 0.042888 -0.043087
v 0.016191 0.051764 0.043529
v 0.016875 -0.051879 0.042155
v -0.015859 0.051080 0.042834
v 0.016875 -0.051206 -0.041035
v -0.016539 0.051080 -0.040348
v -0.015859 -0.051879 0.041468
v -0.017224 -0.049839 -0.038992
v 0.016875 0.051080 -0.041722
v 0.018239 0.026523 0.014194
v -0.007676 0.055171 -0.037627
v -0.006312 -0.053257 -0.038983
v -0.015175 -0.014376 -0.041714
v -0.019953 -0.042330 -0.036253
v 0.018239 -0.028690 -0.009657
v -0.019269 0.008108 -0.017160
v -0.017905 -0.040973 0.035339
v -0.014495 0.015607 0.043529
v 0.005962 -0.053941 0.040112
v 0.006642 -0.049166 -0.042400
v 0.007326 0.053815 0.037382
v 0.018239 -0.035515 0.025793
v 0.014146 0.053120 -0.041035
v 0.016875 0.051764 0.042155
v 0.016191 -0.051879 0.042842
v -0.017224 0.050397 -0.039670
v -0.006992 0.053804 0.040112
v -0.019269 -0.023915 0.014194
v 0.014826 -0.052563 -0.041035
v 0.018239 0.019025 -0.016482
v -0.012450 0.018341 -0.042400
v 0.014826 -0.019824 -0.043087
v 0.018239 0.035400 -0.004205
v -0.013815 0.050397 -0.041714
v -0.015859 -0.051879 -0.038305
v -0.019953 -0.011642 -0.025341
v -0.017224 -0.049166 0.039425
v -0.014495 -0.052574 0.040790
v -0.000177 0.055182 -0.031480
v -0.013130 0.053815 -0.021255
v -0.014495 -0.051206 0.042155
v 0.017555 -0.048482 0.039434
v 0.014826 -0.011642 0.043529
v 0.014146 0.053120 0.042834
v -0.019953 -0.017100 -0.006935
v 0.018239 -0.013009 0.028522
v -0.017224 -0.010274 -0.041035
v -0.013815 -0.049156 -0.040348
v -0.014495 0.050397 0.043529
v -0.018589 -0.048472 -0.037627
v -0.014495 0.052448 0.042155
v 0.017555 0.045622 0.031244
v -0.015175 0.053120 -0.039670
v 0.006642 -0.053257 -0.035575
v 0.016191 -0.052574 0.042155
v -0.018589 0.023115 -0.018525
v 0.001188 -0.053941 0.039425
v 0.016191 -0.047788 -0.042400
v -0.019953 -0.032791 -0.036948
v -0.018589 -0.031424 0.027157
v 0.018239 -0.037555 0.012829
v 0.017555 0.048356 0.014871
vn 0.9991 0.0423 0.0071
vn -0.0000 0.1644 -0.9864
vn -0.0005 0.1646 -0.9864
vn -0.0011 0.1650 -0.9863
vn -0.6496 -0.0101 0.7602
vn 1.0000 -0.0000 -0.0000
vn 0.8952 -0.0000 0.4457
vn 0.5977 0.8017 -0.0065
vn 0.7086 -0.0047 0.7056
vn -0.0668 -0.5065 -0.8596
vn 0.9985 -0.0004 -0.0544
vn 0.9992 -0.0056 -0.0394
vn -0.0572 -0.0162 -0.9982
vn -0.0416 -0.0118 -0.9991
vn -0.0000 -0.0000 -1.0000
vn 0.2988 0.0097 -0.9543
vn -0.0268 -0.0012 -0.9996
vn 0.9994 0.0207 -0.0277
vn -0.0040 0.1666 -0.9860
vn -0.0072 0.3104 -0.9506
vn -0.0473 0.0194 -0.9987
vn -1.0000 -0.0000 -0.0000
vn -0.9990 0.0437 -0.0086
vn -0.9990 0.0443 -0.0076
vn -0.9991 0.0406 -0.0145
vn -0.8362 -0.0073 0.5484
vn -0.9972 -0.0686 0.0310
vn -0.9969 -0.0726 0.0294
vn -0.9970 -0.0716 0.0298
vn -0.9973 -0.0670 0.0316
vn -0.9839 0.0073 0.1785
vn -0.4537 -0.8912 -0.0000
vn -0.1432 -0.9897 -0.0062
vn 0.0781 0.9922 -0.0970
vn -0.0159 0.9997 0.0177
vn 0.0030 0.9998 0.0195
vn -0.4419 -0.0183 0.8969
vn -0.0176 -0.0181 0.9997
vn -0.0169 -0.0171 0.9997
vn -0.0228 -0.0206 0.9995
vn -0.0313 -0.6821 0.7306
vn 0.9803 -0.1976 -0.0016
vn 0.9702 -0.0000 0.2425
vn -0.0000 -0.0000 1.0000
vn 0.2942 -0.0063 0.9557
vn -0.0164 -0.0176 0.9997
vn 0.4451 0.8955 -0.0000
vn 0.4791 0.8447 0.2386
vn 0.0189 0.9945 0.1030
vn 0.1425 0.9898 -0.0000
vn 0.0938 0.9955 0.0095
vn -0.9986 0.0464 0.0233
vn -0.9987 0.0463 0.0234
vn -0.9988 0.0388 0.0289
vn -0.9995 -0.0016 0.0318
vn -0.9987 0.0294 0.0418
vn -0.9995 0.0308 0.0091
vn 0.9990 -0.0054 0.0449
vn 0.9970 0.0047 0.0776
vn -0.3980 -0.0473 -0.9162
vn -0.7115 0.0158 -0.7025
vn -0.3071 0.0059 -0.9517
vn -0.3045 0.0054 -0.9525
vn -0.3110 0.0066 -0.9504
vn -0.4449 0.0150 -0.8955
vn -0.3134 0.0070 -0.9496
vn -0.3604 -0.0507 -0.9314
vn -0.0890 -0.4573 -0.8848
vn -0.0997 -0.0429 -0.9941
vn -0.2492 -0.4545 -0.8552
vn -0.1357 -0.5270 -0.8390
vn -0.4542 -0.0000 0.8909
vn -0.0193 0.4329 0.9012
vn -0.7805 -0.6251 -0.0000
vn -0.7842 -0.5896 -0.1935
vn -0.8970 -0.4420 0.0119
vn -0.9754 -0.2201 0.0153
vn -0.7259 -0.0354 -0.6869
vn -0.7245 -0.0356 -0.6884
vn -0.7308 -0.0347 -0.6817
vn -0.1729 0.9848 0.0188
vn -0.1930 0.9810 0.0170
vn -0.0318 0.8826 0.4690
vn -0.1434 0.5507 0.8223
vn -0.0327 0.5562 0.8304
vn 0.9996 0.0250 0.0121
vn 0.9995 0.0103 0.0285
vn 0.9983 0.0090 0.0572
vn -0.0303 0.7589 -0.6505
vn -0.7991 0.6012 0.0082
vn -0.7836 0.5894 -0.1965
vn -0.2966 0.4739 -0.8291
vn -0.0376 0.5876 -0.8083
vn -0.2620 0.9651 -0.0073
vn -0.7051 0.7090 0.0117
vn -0.4081 0.9129 0.0109
vn 0.0021 -1.0000 -0.0089
vn 0.0016 -1.0000 -0.0088
vn 0.0024 -1.0000 -0.0090
vn 0.0791 -0.9968 -0.0083
vn 0.0239 -0.9956 -0.0908
vn 0.7122 -0.7020 -0.0057
vn 0.5811 -0.5723 0.5786
vn -0.0305 -0.7029 0.7107
vn 0.5520 -0.8338 -0.0092
vn 0.1329 -0.9911 -0.0023
vn -0.0290 -0.7576 0.6520
vn -0.0305 -0.7284 0.6845
vn -0.9986 0.0473 0.0228
vn -0.9979 0.0623 0.0160
vn -0.9990 0.0447 -0.0068
vn 0.0013 -1.0000 -0.0088
vn -0.0869 -0.9962 -0.0004
vn -0.0507 -0.9344 0.3527
vn 0.8910 -0.0030 -0.4540
vn 0.2150 -0.3248 -0.9210
vn 0.0412 -0.2855 -0.9575
vn 0.0035 -0.0244 -0.9997
vn 0.4911 0.0026 -0.8711
vn -0.9979 0.0309 -0.0563
vn -0.8595 0.0115 -0.5109
vn -0.7996 -0.0437 -0.5989
vn -0.7332 -0.0344 -0.6791
vn -0.9985 -0.0386 0.0384
vn -0.9949 0.0140 0.0995
vn -0.9990 -0.0236 0.0387
vn -0.9977 0.0208 0.0644
vn 0.9991 -0.0391 -0.0154
vn 0.9970 -0.0766 -0.0058
vn 0.9990 -0.0452 0.0071
vn 0.9779 0.2088 -0.0017
vn 0.9978 0.0657 -0.0088
vn 0.9963 0.0851 0.0142
s 1
f 54//1 35//1 64//1
f 3//2 2//3 11//4
f 6//5 9//5 20//5
f 17//6 12//6 24//6
f 4//7 5//7 26//7
f 11//8 25//8 26//8
f 5//9 4//9 27//9
f 14//10 22//10 31//10
f 7//11 11//11 32//11
f 17//12 7//12 32//12
f 12//6 17//6 32//6
f 22//13 15//13 33//13
f 22//14 33//14 34//14
f 2//15 3//15 34//15
f 3//16 11//16 34//16
f 33//17 2//17 34//17
f 32//18 11//18 35//18
f 12//6 32//6 35//6
f 11//4 2//3 36//19
f 25//20 11//20 36//20
f 2//21 33//21 36//21
f 16//22 1//22 38//22
f 18//23 28//24 38//25
f 9//26 6//26 39//26
f 1//27 16//28 39//29
f 19//30 1//27 39//29
f 6//31 19//31 39//31
f 9//32 37//32 40//32
f 37//33 14//33 40//33
f 25//34 13//34 41//34
f 13//35 29//35 41//35
f 29//36 23//36 41//36
f 20//37 9//37 43//37
f 27//38 20//39 43//40
f 9//41 27//41 43//41
f 5//42 7//42 44//42
f 26//43 5//43 44//43
f 4//44 20//44 45//44
f 27//45 4//45 45//45
f 20//39 27//38 45//46
f 26//47 25//47 46//47
f 4//48 26//48 46//48
f 23//49 29//49 46//49
f 25//50 41//50 46//50
f 41//51 23//51 46//51
f 6//52 18//53 47//54
f 1//55 30//55 47//55
f 30//56 6//56 47//56
f 38//22 1//22 47//22
f 18//57 38//57 47//57
f 24//6 12//6 48//6
f 44//58 24//58 48//58
f 26//59 44//59 48//59
f 15//60 10//60 49//60
f 28//61 8//61 49//61
f 33//62 15//63 49//64
f 8//65 36//65 49//65
f 36//66 33//62 49//64
f 10//67 15//67 50//67
f 22//68 14//68 50//68
f 15//69 22//69 50//69
f 37//70 10//70 50//70
f 14//71 37//71 50//71
f 20//44 4//44 51//44
f 6//72 20//72 51//72
f 4//73 46//73 51//73
f 37//74 9//74 52//74
f 10//75 37//75 52//75
f 9//76 39//76 52//76
f 39//77 16//77 52//77
f 49//78 10//79 52//80
f 29//81 13//81 53//81
f 13//82 42//82 53//82
f 46//83 29//83 53//83
f 6//84 51//84 53//84
f 51//85 46//85 53//85
f 12//86 35//86 54//86
f 48//87 12//87 54//87
f 26//88 48//88 54//88
f 13//89 25//89 55//89
f 28//90 6//90 55//90
f 8//91 28//91 55//91
f 36//92 8//92 55//92
f 25//93 36//93 55//93
f 42//94 13//94 55//94
f 6//95 53//95 55//95
f 53//96 42//96 55//96
f 21//97 14//98 56//99
f 31//100 21//100 56//100
f 14//101 31//101 56//101
f 7//102 5//102 57//102
f 5//103 27//103 57//103
f 27//104 9//104 57//104
f 31//105 7//105 57//105
f 21//106 31//106 57//106
f 40//107 21//107 57//107
f 9//108 40//108 57//108
f 18//53 6//52 58//109
f 6//110 28//110 58//110
f 28//24 18//23 58//111
f 14//98 21//97 59//112
f 40//113 14//113 59//113
f 21//114 40//114 59//114
f 11//115 7//115 60//115
f 7//116 31//116 60//116
f 31//117 22//117 60//117
f 22//118 34//118 60//118
f 34//119 11//119 60//119
f 16//22 38//22 61//22
f 38//120 28//120 61//120
f 28//121 49//121 61//121
f 52//122 16//122 61//122
f 49//78 52//80 61//123
f 1//124 19//124 62//124
f 19//125 6//125 62//125
f 30//126 1//126 62//126
f 6//127 30//127 62//127
f 7//128 17//128 63//128
f 17//6 24//6 63//6
f 44//129 7//129 63//129
f 24//130 44//130 63//130
f 11//131 26//131 64//131
f 35//132 11//132 64//132
f 26//133 54//133 64//133
