# Blender 4.3.2
# www.blender.org
mtllib 012 Strawberry.mtl
o convex_0
v -0.020126 -0.003342 -0.004196
v 0.022372 -0.000861 0.000055
v 0.020593 -0.005465 0.006774
v -0.004898 0.016490 0.013506
v -0.002067 0.014362 -0.018361
v 0.005366 -0.015026 -0.016942
v -0.003478 -0.015734 0.016344
v -0.019418 0.017906 -0.010924
v -0.017290 0.005510 0.013506
v 0.011033 0.010469 0.016696
v 0.012807 0.013654 -0.011276
v -0.003125 -0.022113 0.003593
v -0.011627 -0.008651 -0.015880
v 0.004658 -0.005820 0.023072
v 0.015992 -0.018570 0.001470
v 0.018116 0.000197 -0.014466
v 0.000760 0.019675 -0.006319
v -0.011627 -0.010779 0.016696
v -0.019064 0.020383 -0.003130
v -0.002770 0.001967 0.022719
v 0.012807 0.014362 0.008550
v -0.004190 0.004802 -0.020489
v 0.020244 -0.013256 -0.005611
v -0.009853 -0.018570 -0.002068
v 0.012802 -0.016092 0.011026
v 0.006432 0.005864 -0.020132
v 0.002185 -0.021759 -0.005963
v 0.018828 0.005510 0.011026
v 0.019181 0.008700 -0.007025
v -0.020479 -0.004404 0.000408
v 0.001822 -0.007943 -0.020489
v 0.012807 0.001966 0.019177
v -0.016936 0.011885 -0.014814
v 0.000760 0.017906 0.010321
v -0.013397 0.021449 -0.008086
v -0.017294 -0.008297 -0.009862
v -0.007021 -0.017862 -0.009506
v 0.012449 -0.007235 -0.017652
v -0.007021 -0.005820 0.022006
v -0.013039 0.008342 0.016696
v 0.009971 -0.017508 -0.012695
v -0.021192 0.015075 -0.003839
v -0.009499 -0.019277 0.004655
v 0.018116 -0.010779 0.009965
v 0.005012 0.005864 0.021652
v -0.017998 -0.010071 0.001470
v -0.019771 0.002321 0.008902
v 0.003242 -0.021047 0.007135
v -0.019064 0.015075 0.004651
v 0.002535 0.017906 -0.012695
v 0.008556 0.017552 -0.004549
v 0.020951 -0.002276 -0.010572
v 0.017408 0.011885 0.000055
v 0.012094 0.009761 -0.015880
v 0.020951 -0.013256 0.000051
v 0.015638 -0.009718 -0.014819
v 0.007848 -0.010071 0.019529
v -0.020833 0.012239 -0.008796
v -0.015520 0.016844 -0.014462
v -0.000647 -0.015384 -0.015880
v -0.017998 -0.000861 0.012449
v -0.010565 0.017198 0.010321
v 0.001472 -0.017154 0.014925
v -0.014458 0.021449 -0.003486
vn -0.1875 0.9227 0.3369
vn 0.0113 0.2149 -0.9766
vn 0.9579 0.0441 0.2838
vn 0.6861 0.5869 0.4299
vn -0.3136 -0.1479 -0.9380
vn 0.0320 0.0151 -0.9994
vn 0.6839 0.3322 0.6496
vn -0.4363 -0.0662 -0.8974
vn 0.1624 0.7619 0.6270
vn 0.3121 0.8290 0.4641
vn -0.3948 0.8806 -0.2620
vn -0.9230 -0.3533 -0.1524
vn -0.7240 -0.1522 -0.6728
vn -0.3131 -0.9268 -0.2076
vn -0.3134 -0.9267 -0.2075
vn -0.3128 -0.9268 -0.2077
vn -0.3123 -0.9269 -0.2079
vn -0.5780 -0.6397 -0.5067
vn -0.6418 -0.7009 -0.3111
vn 0.4511 0.0384 -0.8917
vn 0.2641 -0.3229 -0.9088
vn 0.2613 -0.0624 -0.9632
vn -0.0779 -0.5153 0.8535
vn -0.3020 -0.5519 0.7773
vn -0.0908 -0.0416 0.9950
vn -0.4281 0.1521 0.8908
vn -0.1786 0.5083 0.8425
vn -0.6144 0.0345 0.7882
vn 0.5274 -0.8007 -0.2842
vn 0.0180 -0.8547 -0.5189
vn 0.3247 -0.9228 -0.2072
vn -0.9216 0.3800 -0.0789
vn -0.3100 -0.8537 0.4185
vn -0.4461 -0.7665 0.4621
vn -0.4156 -0.9066 -0.0735
vn 0.6892 -0.6116 0.3886
vn 0.8420 -0.0717 0.5346
vn 0.8171 -0.0730 0.5719
vn 0.1024 0.6636 0.7410
vn -0.1422 0.5153 0.8451
vn 0.0767 0.1179 0.9901
vn 0.4331 0.3345 0.8370
vn 0.3474 0.1027 0.9321
vn -0.7441 -0.6514 -0.1482
vn -0.9007 -0.4171 -0.1212
vn -0.7513 -0.5944 0.2867
vn -0.7285 -0.6842 -0.0336
vn -0.9953 -0.0156 0.0953
vn 0.3216 -0.8849 0.3368
vn 0.1421 -0.9890 0.0423
vn 0.2062 -0.9778 0.0365
vn -0.7060 0.4062 0.5802
vn -0.9137 0.3357 0.2290
vn -0.9122 0.1743 0.3709
vn -0.9613 0.1337 0.2409
vn 0.0281 0.8371 -0.5464
vn 0.1488 0.9627 -0.2258
vn 0.2396 0.9654 0.1027
vn 0.2977 0.9453 0.1336
vn 0.3996 0.8798 -0.2572
vn 0.2960 0.9384 -0.1781
vn 0.9659 0.2063 -0.1566
vn 0.8519 0.2803 -0.4424
vn 0.9281 0.3614 0.0899
vn 0.7688 0.5911 0.2440
vn 0.9295 0.3620 0.0700
vn 0.6697 0.7255 -0.1586
vn 0.5252 0.8502 0.0366
vn 0.5749 0.8113 -0.1068
vn 0.2985 0.4716 -0.8298
vn 0.5019 0.1912 -0.8436
vn 0.7422 0.3862 -0.5477
vn 0.7132 0.4769 -0.5137
vn 0.3317 0.6549 -0.6790
vn 0.3691 0.6807 -0.6328
vn 0.9769 -0.1120 0.1818
vn 0.7161 -0.6922 -0.0895
vn 0.9174 -0.2350 0.3212
vn 0.7289 -0.5855 0.3548
vn 0.9855 -0.1181 -0.1221
vn 0.9867 -0.1130 -0.1168
vn 0.9859 -0.1161 -0.1201
vn 0.9852 -0.1191 -0.1232
vn 0.3900 -0.4288 -0.8148
vn 0.6039 -0.1229 -0.7875
vn 0.6097 -0.5884 -0.5311
vn 0.4187 -0.5096 -0.7517
vn 0.8092 -0.2844 -0.5140
vn 0.7453 -0.1632 -0.6464
vn 0.5818 -0.2167 0.7840
vn 0.5895 -0.4563 0.6666
vn 0.6513 -0.2473 0.7174
vn -0.9930 -0.0727 -0.0933
vn -0.8392 0.0054 -0.5438
vn -0.9296 -0.1426 -0.3399
vn -0.8367 -0.1164 -0.5351
vn -0.9690 0.1776 -0.1716
vn -0.9979 -0.0464 -0.0455
vn -0.2245 0.2590 -0.9394
vn -0.6190 0.2301 -0.7510
vn -0.3263 0.1594 -0.9317
vn -0.0184 0.8134 -0.5814
vn -0.2422 0.8230 -0.5138
vn -0.0435 -0.8460 -0.5314
vn -0.1228 -0.4928 -0.8615
vn -0.2702 -0.4405 -0.8561
vn -0.3975 -0.6482 -0.6495
vn -0.1681 -0.8504 -0.4986
vn -0.6684 -0.0489 0.7422
vn -0.6842 -0.1324 0.7172
vn -0.8511 -0.4022 0.3374
vn -0.8966 -0.3393 0.2846
vn -0.8863 0.0217 0.4627
vn -0.9372 -0.2313 0.2612
vn -0.0592 0.9470 0.3157
vn -0.0592 0.9472 0.3151
vn -0.0592 0.9475 0.3143
vn -0.3288 0.6105 0.7205
vn -0.5032 0.7139 0.4870
vn -0.5463 0.5845 0.6000
vn -0.1285 -0.8883 0.4409
vn 0.0596 -0.5936 0.8026
vn -0.0883 -0.8989 0.4292
vn 0.2434 -0.8444 0.4773
vn 0.0885 -0.5976 0.7969
vn 0.2921 -0.6920 0.6602
vn 0.1344 0.9854 0.1048
vn 0.1208 0.9923 0.0279
vn -0.2290 0.9720 -0.0528
vn -0.0593 0.9492 0.3090
s 1
f 19//1 62//1 64//1
f 22//2 5//2 26//2
f 3//3 2//3 28//3
f 21//4 10//4 28//4
f 13//5 22//5 31//5
f 22//6 26//6 31//6
f 28//7 10//7 32//7
f 22//8 13//8 33//8
f 4//9 10//9 34//9
f 10//10 21//10 34//10
f 8//11 19//11 35//11
f 30//12 1//12 36//12
f 33//13 13//13 36//13
f 12//14 24//15 37//16
f 27//17 12//14 37//16
f 36//18 13//18 37//18
f 24//19 36//19 37//19
f 26//20 16//20 38//20
f 6//21 31//21 38//21
f 31//22 26//22 38//22
f 7//23 14//23 39//23
f 18//24 7//24 39//24
f 14//25 20//25 39//25
f 39//26 20//26 40//26
f 20//27 4//27 40//27
f 9//28 39//28 40//28
f 23//29 15//29 41//29
f 27//30 6//30 41//30
f 15//31 27//31 41//31
f 19//32 8//32 42//32
f 12//33 7//33 43//33
f 7//34 18//34 43//34
f 24//35 12//35 43//35
f 25//36 15//36 44//36
f 3//37 28//37 44//37
f 28//38 32//38 44//38
f 10//39 4//39 45//39
f 4//40 20//40 45//40
f 20//41 14//41 45//41
f 32//42 10//42 45//42
f 14//43 32//43 45//43
f 36//44 24//44 46//44
f 30//45 36//45 46//45
f 43//46 18//46 46//46
f 24//47 43//47 46//47
f 42//48 30//48 47//48
f 15//49 25//49 48//49
f 12//50 27//50 48//50
f 27//51 15//51 48//51
f 9//52 40//52 49//52
f 19//53 42//53 49//53
f 47//54 9//54 49//54
f 42//55 47//55 49//55
f 5//56 35//56 50//56
f 35//57 17//57 50//57
f 17//58 34//58 51//58
f 34//59 21//59 51//59
f 11//60 50//60 51//60
f 50//61 17//61 51//61
f 29//62 2//62 52//62
f 16//63 29//63 52//63
f 28//64 2//64 53//64
f 21//65 28//65 53//65
f 2//66 29//66 53//66
f 29//67 11//67 53//67
f 51//68 21//68 53//68
f 11//69 51//69 53//69
f 26//70 5//70 54//70
f 16//71 26//71 54//71
f 29//72 16//72 54//72
f 11//73 29//73 54//73
f 5//74 50//74 54//74
f 50//75 11//75 54//75
f 2//76 3//76 55//76
f 15//77 23//77 55//77
f 3//78 44//78 55//78
f 44//79 15//79 55//79
f 52//80 2//81 55//82
f 23//83 52//80 55//82
f 6//84 38//84 56//84
f 38//85 16//85 56//85
f 23//86 41//86 56//86
f 41//87 6//87 56//87
f 52//88 23//88 56//88
f 16//89 52//89 56//89
f 32//90 14//90 57//90
f 25//91 44//91 57//91
f 44//92 32//92 57//92
f 1//93 30//93 58//93
f 8//94 33//94 58//94
f 36//95 1//95 58//95
f 33//96 36//96 58//96
f 42//97 8//97 58//97
f 30//98 42//98 58//98
f 5//99 22//99 59//99
f 33//100 8//100 59//100
f 22//101 33//101 59//101
f 35//102 5//102 59//102
f 8//103 35//103 59//103
f 6//104 27//104 60//104
f 31//105 6//105 60//105
f 13//106 31//106 60//106
f 37//107 13//107 60//107
f 27//108 37//108 60//108
f 39//109 9//109 61//109
f 18//110 39//110 61//110
f 46//111 18//111 61//111
f 30//112 46//112 61//112
f 9//113 47//113 61//113
f 47//114 30//114 61//114
f 4//115 34//116 62//117
f 40//118 4//118 62//118
f 19//119 49//119 62//119
f 49//120 40//120 62//120
f 7//121 12//121 63//121
f 14//122 7//122 63//122
f 12//123 48//123 63//123
f 48//124 25//124 63//124
f 57//125 14//125 63//125
f 25//126 57//126 63//126
f 34//127 17//127 64//127
f 17//128 35//128 64//128
f 35//129 19//129 64//129
f 62//117 34//116 64//130
