# Blender 4.3.2
# www.blender.org
mtllib 014 Lemon.mtl
o convex_0
v 0.007551 -0.025491 -0.013064
v -0.000454 0.027901 0.001166
v -0.000454 0.027901 0.000720
v -0.028926 0.001648 0.001166
v 0.010221 -0.008136 0.023415
v 0.015561 0.006543 -0.021073
v 0.029352 -0.001017 0.004281
v -0.016915 0.009654 -0.021073
v -0.006234 0.016327 0.021631
v -0.013800 -0.017480 0.014519
v -0.024475 0.024784 0.002057
v 0.016897 -0.023266 0.010066
v -0.017360 -0.016594 -0.010395
v 0.019116 0.014548 0.011849
v -0.020470 0.002088 0.019858
v -0.001339 -0.008582 -0.024630
v 0.022237 -0.012585 -0.014402
v 0.005326 0.023446 -0.013064
v -0.001784 -0.028162 0.000725
v 0.024011 0.009207 -0.009949
v -0.006234 0.021668 -0.017958
v 0.024462 -0.020150 -0.003718
v 0.019566 -0.001909 0.019858
v -0.004454 -0.010361 0.023860
v -0.022695 0.006097 -0.017512
v 0.002655 0.006983 0.025192
v 0.001765 0.010099 -0.024184
v 0.002661 -0.025491 0.011844
v 0.000430 0.023005 0.014960
v -0.021810 -0.013477 0.006509
v 0.023121 -0.014369 0.013622
v 0.012001 0.023005 0.000720
v 0.013781 -0.007690 -0.022406
v -0.010679 -0.013477 -0.019736
v 0.011111 -0.028162 0.002503
v 0.026682 -0.003687 -0.011281
v -0.009349 -0.024599 -0.007279
v -0.013800 0.010545 0.022523
v -0.025810 0.004759 0.013627
v 0.011105 -0.018818 0.018521
v -0.025365 -0.006357 -0.007725
v 0.004880 -0.020596 -0.019290
v 0.011106 0.011878 0.020744
v -0.026700 0.021668 -0.000157
v -0.016025 0.018997 -0.016626
v -0.004905 0.026562 -0.009949
v -0.013800 0.019889 0.017184
v -0.009343 -0.000136 -0.024634
v 0.013776 0.016772 -0.015734
v 0.021786 0.014548 -0.001494
v -0.012910 -0.022374 0.005173
v -0.026255 -0.005465 0.008729
v 0.017341 -0.018372 -0.015734
v -0.019141 -0.001909 -0.019290
v -0.005795 0.025670 0.010512
v 0.009776 0.021668 0.011849
v -0.022250 0.009207 0.017184
v -0.004448 -0.000136 0.025643
v 0.024017 0.003427 0.014073
v 0.006655 0.001202 -0.025080
v 0.028907 -0.008582 0.003390
v -0.026255 0.006543 -0.011281
v -0.016019 -0.009028 0.019412
v -0.003119 -0.025045 -0.012172
vn -0.2749 -0.6456 -0.7125
vn -0.1287 0.9917 -0.0000
vn 0.3250 0.0516 0.9443
vn -0.1608 0.3792 -0.9112
vn -0.2080 -0.6664 0.7160
vn 0.7375 -0.6215 0.2643
vn 0.4951 -0.2717 0.8252
vn 0.3658 0.9307 -0.0000
vn 0.3619 0.9208 -0.1458
vn 0.0240 -0.9844 -0.1744
vn 0.4124 -0.8775 -0.2448
vn 0.5499 -0.8273 0.1148
vn 0.1914 -0.8843 0.4260
vn -0.0340 -0.9686 0.2462
vn 0.9548 0.2185 -0.2013
vn 0.7507 0.2198 -0.6230
vn 0.8706 -0.2974 -0.3920
vn 0.6550 -0.0112 -0.7556
vn 0.6639 -0.0705 -0.7445
vn -0.0961 0.2733 0.9571
vn 0.0895 -0.4087 0.9083
vn 0.1957 -0.8062 0.5583
vn -0.0902 -0.6451 0.7588
vn 0.4599 -0.3381 0.8211
vn 0.4824 -0.5945 0.6433
vn -0.7963 -0.5967 -0.0996
vn 0.1564 -0.3324 -0.9301
vn -0.1956 -0.4811 -0.8546
vn 0.1688 0.4872 0.8568
vn 0.3781 0.1736 0.9093
vn 0.1918 0.5912 0.7834
vn -0.9696 0.1218 0.2121
vn -0.8512 0.3039 0.4278
vn -0.2370 0.4358 -0.8683
vn -0.6430 0.3782 -0.6660
vn -0.5340 0.7088 -0.4610
vn -0.7312 0.4152 -0.5413
vn -0.1321 0.9888 -0.0689
vn 0.2247 0.9508 -0.2130
vn 0.0950 0.8423 -0.5305
vn -0.2913 0.8370 -0.4632
vn -0.3301 0.8491 -0.4123
vn -0.0543 0.7323 0.6788
vn -0.2668 0.4781 0.8368
vn -0.1653 0.2217 -0.9610
vn -0.3151 -0.2991 -0.9007
vn 0.6645 0.4336 -0.6087
vn 0.2319 0.5999 -0.7657
vn 0.3091 0.4819 -0.8199
vn 0.2287 0.5792 -0.7824
vn 0.5530 0.7972 -0.2423
vn 0.6080 0.7619 -0.2230
vn 0.8594 0.4815 0.1720
vn 0.9036 0.4273 -0.0321
vn 0.6651 0.7347 0.1331
vn 0.6656 0.6975 -0.2655
vn -0.3229 -0.8828 0.3411
vn -0.3446 -0.8447 0.4095
vn -0.7101 -0.7017 -0.0575
vn -0.6507 -0.6964 0.3027
vn -0.4518 -0.8916 0.0301
vn -0.6915 -0.7190 -0.0693
vn -0.7185 -0.5250 0.4562
vn -0.9617 -0.0833 0.2613
vn -0.7856 -0.2392 0.5707
vn -0.9251 -0.3787 -0.0295
vn -0.8767 -0.4805 -0.0214
vn 0.4677 -0.7911 -0.3943
vn 0.7156 -0.4910 -0.4968
vn 0.5606 -0.2962 -0.7733
vn 0.3111 -0.6777 -0.6663
vn 0.3177 -0.4239 -0.8482
vn -0.5086 -0.0348 -0.8603
vn -0.6482 -0.4504 -0.6139
vn -0.8122 -0.2428 -0.5305
vn -0.7214 -0.4207 -0.5501
vn -0.4721 -0.0449 -0.8804
vn -0.4216 -0.2750 -0.8641
vn -0.1209 0.9789 0.1645
vn 0.1704 0.9320 0.3198
vn -0.2446 0.8586 0.4505
vn -0.0823 0.7999 0.5944
vn 0.2355 0.9206 0.3116
vn 0.3653 0.9128 0.1828
vn 0.5924 0.7773 0.2119
vn 0.4769 0.6257 0.6173
vn 0.3205 0.6605 0.6790
vn -0.5455 0.1717 0.8203
vn -0.8381 0.3137 0.4463
vn -0.7441 0.0637 0.6650
vn -0.6261 0.4953 0.6021
vn -0.5313 0.4203 0.7356
vn 0.0559 -0.1716 0.9836
vn -0.3549 -0.1604 0.9211
vn 0.1197 -0.0566 0.9912
vn -0.3427 -0.0256 0.9391
vn -0.1192 0.1808 0.9763
vn 0.8594 0.4331 0.2717
vn 0.8658 -0.0562 0.4972
vn 0.8155 -0.0557 0.5761
vn 0.6150 0.4062 0.6758
vn 0.5900 0.3142 0.7438
vn 0.2727 0.2436 -0.9308
vn 0.1532 -0.1700 -0.9735
vn 0.3914 0.0371 -0.9195
vn -0.0257 -0.0250 -0.9994
vn -0.0345 0.0813 -0.9961
vn 0.8570 -0.4653 0.2214
vn 0.8899 -0.1047 0.4440
vn 0.9859 -0.0389 -0.1625
vn 0.9482 -0.2290 -0.2202
vn -0.9560 -0.1374 -0.2591
vn -0.8581 -0.1906 -0.4767
vn -0.8081 0.3334 -0.4856
vn -0.9803 0.0976 -0.1719
vn -0.3561 -0.5365 0.7651
vn -0.3713 -0.1851 0.9099
vn -0.7068 -0.4842 0.5158
vn -0.7353 -0.3184 0.5983
vn -0.0598 -0.9717 -0.2286
vn -0.4724 -0.6774 -0.5639
vn -0.2299 -0.9511 -0.2061
vn -0.4772 -0.6896 -0.5448
vn -0.0831 -0.8004 -0.5937
s 1
f 34//1 42//1 64//1
f 2//2 3//2 11//2
f 5//3 23//3 26//3
f 8//4 21//4 27//4
f 24//5 10//5 28//5
f 12//6 22//6 31//6
f 23//7 5//7 31//7
f 3//8 2//8 32//8
f 18//9 3//9 32//9
f 19//10 1//10 35//10
f 1//11 22//11 35//11
f 22//12 12//12 35//12
f 12//13 28//13 35//13
f 28//14 19//14 35//14
f 20//15 7//15 36//15
f 6//16 20//16 36//16
f 22//17 17//17 36//17
f 33//18 6//18 36//18
f 17//19 33//19 36//19
f 26//20 9//20 38//20
f 5//21 24//21 40//21
f 28//22 12//22 40//22
f 24//23 28//23 40//23
f 31//24 5//24 40//24
f 12//25 31//25 40//25
f 13//26 30//26 41//26
f 16//27 33//27 42//27
f 34//28 16//28 42//28
f 9//29 26//29 43//29
f 26//30 23//30 43//30
f 29//31 9//31 43//31
f 4//32 39//32 44//32
f 39//33 11//33 44//33
f 21//34 8//34 45//34
f 8//35 25//35 45//35
f 44//36 11//36 45//36
f 25//37 44//37 45//37
f 11//38 3//38 46//38
f 3//39 18//39 46//39
f 18//40 21//40 46//40
f 21//41 45//41 46//41
f 45//42 11//42 46//42
f 9//43 29//43 47//43
f 38//44 9//44 47//44
f 8//45 27//45 48//45
f 16//46 34//46 48//46
f 20//47 6//47 49//47
f 21//48 18//48 49//48
f 6//49 27//49 49//49
f 27//50 21//50 49//50
f 18//51 32//51 49//51
f 49//52 32//52 50//52
f 14//53 7//53 50//53
f 7//54 20//54 50//54
f 32//55 14//55 50//55
f 20//56 49//56 50//56
f 19//57 28//57 51//57
f 28//58 10//58 51//58
f 30//59 13//59 51//59
f 10//60 30//60 51//60
f 37//61 19//61 51//61
f 13//62 37//62 51//62
f 30//63 10//63 52//63
f 39//64 4//64 52//64
f 15//65 39//65 52//65
f 4//66 41//66 52//66
f 41//67 30//67 52//67
f 22//68 1//68 53//68
f 17//69 22//69 53//69
f 33//70 17//70 53//70
f 1//71 42//71 53//71
f 42//72 33//72 53//72
f 25//73 8//73 54//73
f 34//74 13//74 54//74
f 41//75 25//75 54//75
f 13//76 41//76 54//76
f 8//77 48//77 54//77
f 48//78 34//78 54//78
f 2//79 11//79 55//79
f 29//80 2//80 55//80
f 11//81 47//81 55//81
f 47//82 29//82 55//82
f 2//83 29//83 56//83
f 32//84 2//84 56//84
f 14//85 32//85 56//85
f 43//86 14//86 56//86
f 29//87 43//87 56//87
f 15//88 38//88 57//88
f 11//89 39//89 57//89
f 39//90 15//90 57//90
f 47//91 11//91 57//91
f 38//92 47//92 57//92
f 24//93 5//93 58//93
f 15//94 24//94 58//94
f 5//95 26//95 58//95
f 38//96 15//96 58//96
f 26//97 38//97 58//97
f 7//98 14//98 59//98
f 31//99 7//99 59//99
f 23//100 31//100 59//100
f 14//101 43//101 59//101
f 43//102 23//102 59//102
f 27//103 6//103 60//103
f 33//104 16//104 60//104
f 6//105 33//105 60//105
f 16//106 48//106 60//106
f 48//107 27//107 60//107
f 31//108 22//108 61//108
f 7//109 31//109 61//109
f 36//110 7//110 61//110
f 22//111 36//111 61//111
f 41//112 4//112 62//112
f 25//113 41//113 62//113
f 44//114 25//114 62//114
f 4//115 44//115 62//115
f 10//116 24//116 63//116
f 24//117 15//117 63//117
f 52//118 10//118 63//118
f 15//119 52//119 63//119
f 1//120 19//120 64//120
f 13//121 34//121 64//121
f 19//122 37//122 64//122
f 37//123 13//123 64//123
f 42//124 1//124 64//124
