# Blender 4.3.2
# www.blender.org
mtllib 016 Pear.mtl
o convex_0
v 0.026836 -0.021699 0.000846
v 0.018030 0.010654 -0.023792
v 0.018165 0.012506 -0.022415
v 0.051710 -0.009898 -0.024076
v 0.025752 0.012346 0.008069
v 0.021010 -0.017338 -0.025194
v 0.048306 0.000299 -0.009425
v 0.042886 0.004414 -0.026269
v 0.040300 -0.016039 -0.031118
v 0.047757 -0.016889 -0.009050
v 0.021553 0.020085 -0.004436
v 0.027785 -0.006695 0.011351
v 0.040565 -0.023038 -0.020372
v 0.036502 -0.005453 -0.033117
v 0.018572 -0.006682 -0.028788
v 0.024262 -0.024365 -0.011503
v 0.046680 0.004778 -0.017111
v 0.047892 -0.004341 -0.005643
v 0.020197 0.019500 -0.013098
v 0.045993 -0.021733 -0.016272
v 0.042343 -0.002983 -0.031773
v 0.027648 0.001641 0.011788
v 0.031874 -0.021181 -0.024748
v 0.023314 0.018746 0.000163
v 0.028735 -0.016166 0.006446
v 0.051155 -0.005314 -0.011956
v 0.030794 -0.013551 -0.031253
v 0.045990 -0.010006 -0.003767
v 0.038658 -0.023285 -0.011183
v 0.044507 -0.018626 -0.026457
v 0.049536 -0.000449 -0.021986
v 0.037590 0.001351 -0.030524
v 0.019115 0.000971 -0.028196
v 0.042201 0.007402 -0.020428
v 0.052110 -0.011955 -0.020673
v 0.042595 -0.020420 -0.007895
v 0.043021 -0.010747 -0.032114
v 0.045860 0.003995 -0.010959
v 0.019384 0.017168 -0.017629
v 0.021824 -0.021060 -0.020723
v 0.049660 -0.013677 -0.009457
v 0.050481 -0.000772 -0.015485
v 0.025752 -0.024122 -0.004905
v 0.026430 0.006256 0.010944
v 0.045871 -0.000386 -0.027866
v 0.035822 -0.010320 -0.033121
v 0.038404 0.004071 -0.028340
v 0.047080 -0.001914 -0.005644
v 0.036225 -0.017919 -0.029557
v 0.022094 0.020138 -0.004560
v 0.043546 -0.015851 -0.004335
v 0.048306 -0.019287 -0.017739
v 0.040161 -0.020599 -0.026118
v 0.024803 0.015378 0.005220
v 0.028870 -0.013283 0.008260
v 0.028340 -0.023260 -0.018406
v 0.052252 -0.007656 -0.020765
v 0.051163 -0.011502 -0.024608
v 0.045192 -0.005899 -0.030644
v 0.035824 -0.001685 -0.031967
v 0.028894 -0.007226 -0.031814
v 0.038525 -0.023716 -0.014464
v 0.045725 -0.020535 -0.021958
v 0.020470 -0.012491 -0.028006
vn -0.3059 -0.5030 -0.8083
vn -0.9703 -0.0946 0.2226
vn -0.9703 -0.0946 0.2225
vn -0.9703 -0.0945 0.2227
vn -0.9850 0.0887 0.1482
vn -0.6860 -0.3877 0.6157
vn 0.8740 0.2578 0.4120
vn 0.6353 -0.0300 0.7716
vn 0.6571 0.0288 0.7533
vn 0.6830 0.6617 -0.3093
vn 0.0073 0.5963 -0.8027
vn -0.8957 0.0970 -0.4339
vn 0.6350 0.7154 -0.2915
vn 0.3370 0.8536 -0.3972
vn 0.5809 -0.7345 0.3508
vn 0.3808 -0.7191 0.5813
vn 0.2940 -0.8666 0.4032
vn 0.3891 -0.8728 0.2946
vn 0.1995 0.0604 -0.9780
vn 0.5469 -0.4178 -0.7255
vn 0.7844 0.5936 0.1797
vn 0.7846 0.5934 0.1797
vn 0.7842 0.5938 0.1801
vn 0.5990 0.7804 0.1792
vn -0.9825 0.1612 0.0932
vn 0.2764 0.8334 -0.4785
vn -0.9739 -0.2267 -0.0114
vn -0.9703 -0.0946 0.2227
vn -0.2468 -0.7664 -0.5931
vn 0.8869 -0.0206 0.4616
vn 0.8127 -0.0818 0.5769
vn 0.6860 -0.3239 0.6515
vn 0.9739 -0.1158 0.1950
vn 0.7868 0.5910 0.1779
vn 0.9029 0.3392 0.2641
vn 0.8340 0.5436 -0.0942
vn -0.9703 -0.0947 0.2228
vn 0.2255 -0.9123 0.3419
vn -0.6882 -0.0493 0.7238
vn 0.4361 0.5164 -0.7370
vn 0.6967 0.5757 -0.4281
vn 0.8115 0.2979 -0.5026
vn -0.0893 -0.3908 -0.9162
vn 0.1202 -0.2430 -0.9626
vn 0.1374 -0.0184 -0.9903
vn 0.3147 0.5517 -0.7724
vn 0.0292 0.6205 -0.7837
vn 0.2901 0.5449 -0.7867
vn 0.0861 0.7026 -0.7063
vn 0.2102 0.7835 -0.5847
vn 0.6799 0.5150 0.5219
vn 0.8507 0.2844 0.4422
vn 0.6731 0.2250 0.7045
vn 0.6661 0.3778 0.6431
vn 0.6668 0.3007 0.6819
vn -0.2208 -0.7027 -0.6764
vn -0.1134 -0.4787 -0.8706
vn -0.2420 -0.5977 -0.7643
vn -0.1084 0.9928 -0.0500
vn -0.0270 0.9570 0.2889
vn 0.5624 0.8212 0.0967
vn 0.5199 0.8538 -0.0265
vn 0.4333 0.8865 -0.1625
vn 0.6623 -0.3417 0.6668
vn 0.5364 -0.5853 0.6080
vn 0.4794 -0.5993 0.6411
vn 0.7706 -0.6002 0.2143
vn 0.8553 -0.4830 0.1873
vn 0.9005 -0.4139 0.1332
vn 0.0001 -0.9205 -0.3907
vn 0.2740 -0.7146 -0.6437
vn -0.0399 -0.8098 -0.5854
vn 0.0835 -0.7374 -0.6702
vn 0.6620 0.6127 0.4316
vn 0.6620 0.6133 0.4308
vn 0.6618 0.6148 0.4291
vn -0.8910 0.2103 0.4024
vn 0.6617 0.6156 0.4281
vn 0.6214 0.7241 0.2993
vn -0.9150 0.0844 0.3946
vn -0.9401 0.0442 0.3379
vn -0.5456 -0.4279 0.7206
vn 0.5878 -0.2623 0.7653
vn 0.5258 -0.4705 0.7086
vn 0.5851 -0.3172 0.7464
vn -0.0083 -0.9866 -0.1628
vn -0.0358 -0.9436 -0.3293
vn -0.2171 -0.9357 -0.2780
vn -0.1671 -0.9055 -0.3900
vn 0.8983 0.2813 -0.3375
vn 0.9898 -0.0356 -0.1379
vn 0.9909 -0.0295 0.1312
vn 0.9776 0.1986 0.0689
vn 0.9356 0.3323 -0.1195
vn 0.9381 -0.2363 -0.2531
vn 0.6059 -0.3854 -0.6960
vn 0.8125 -0.5239 -0.2558
vn 0.4347 0.0774 -0.8972
vn 0.6005 0.2996 -0.7414
vn 0.7559 0.2180 -0.6174
vn 0.7077 -0.0070 -0.7065
vn 0.6719 -0.0775 -0.7366
vn 0.0885 0.3055 -0.9481
vn -0.0815 0.4661 -0.8810
vn 0.1026 0.3777 -0.9202
vn -0.1733 0.2588 -0.9502
vn -0.1416 0.3966 -0.9070
vn -0.2855 -0.1694 -0.9433
vn -0.2064 0.1785 -0.9621
vn -0.2755 0.0936 -0.9567
vn -0.1743 0.0255 -0.9844
vn -0.2516 -0.1602 -0.9545
vn 0.0232 -0.9941 -0.1061
vn 0.2510 -0.9677 -0.0248
vn 0.2806 -0.9530 0.1138
vn 0.0507 -0.9984 0.0253
vn 0.1244 -0.9844 0.1247
vn 0.3744 -0.9036 -0.2080
vn 0.6565 -0.7313 -0.1850
vn 0.3019 -0.8697 -0.3904
vn 0.3415 -0.8284 -0.4440
vn 0.7130 -0.5550 -0.4285
vn 0.7724 -0.5554 -0.3082
vn -0.8491 -0.3327 -0.4104
vn -0.3133 -0.2265 -0.9222
s 1
f 27//1 6//1 64//1
f 3//2 2//3 1//4
f 3//2 1//4 11//4
f 11//4 1//4 12//4
f 1//4 2//3 15//4
f 1//4 15//4 16//4
f 3//5 11//5 19//5
f 12//6 1//6 25//6
f 7//7 18//7 26//7
f 22//8 12//8 28//8
f 18//9 22//9 28//9
f 8//10 17//10 31//10
f 2//11 3//11 32//11
f 15//12 2//12 33//12
f 17//13 8//13 34//13
f 8//14 19//14 34//14
f 20//15 10//15 36//15
f 25//16 1//16 36//16
f 1//17 29//17 36//17
f 29//18 20//18 36//18
f 14//19 21//19 37//19
f 30//20 9//20 37//20
f 7//21 17//22 38//23
f 17//24 24//24 38//24
f 3//25 19//25 39//25
f 19//26 8//26 39//26
f 15//27 6//27 40//27
f 16//4 15//4 40//28
f 6//29 23//29 40//29
f 26//30 18//30 41//30
f 18//31 28//31 41//31
f 28//32 10//32 41//32
f 35//33 26//33 41//33
f 17//22 7//21 42//34
f 7//35 26//35 42//35
f 31//36 17//36 42//36
f 1//4 16//4 43//37
f 29//38 1//38 43//38
f 11//4 12//4 44//4
f 12//39 22//39 44//39
f 21//40 8//40 45//40
f 8//41 31//41 45//41
f 31//42 4//42 45//42
f 9//43 27//43 46//43
f 37//44 9//44 46//44
f 14//45 37//45 46//45
f 8//46 21//46 47//46
f 32//47 3//47 47//47
f 21//48 32//48 47//48
f 3//49 39//49 47//49
f 39//50 8//50 47//50
f 7//51 5//51 48//51
f 18//52 7//52 48//52
f 22//53 18//53 48//53
f 5//54 44//54 48//54
f 44//55 22//55 48//55
f 23//56 6//56 49//56
f 27//57 9//57 49//57
f 6//58 27//58 49//58
f 19//59 11//59 50//59
f 11//60 24//60 50//60
f 24//61 17//61 50//61
f 17//62 34//62 50//62
f 34//63 19//63 50//63
f 10//64 28//64 51//64
f 36//65 10//65 51//65
f 25//66 36//66 51//66
f 10//67 20//67 52//67
f 41//68 10//68 52//68
f 35//69 41//69 52//69
f 13//70 23//70 53//70
f 9//71 30//71 53//71
f 23//72 49//72 53//72
f 49//73 9//73 53//73
f 5//74 7//75 54//76
f 24//77 11//77 54//77
f 7//75 38//78 54//76
f 38//79 24//79 54//79
f 44//80 5//80 54//80
f 11//81 44//81 54//81
f 12//82 25//82 55//82
f 28//83 12//83 55//83
f 25//84 51//84 55//84
f 51//85 28//85 55//85
f 13//86 16//86 56//86
f 23//87 13//87 56//87
f 16//88 40//88 56//88
f 40//89 23//89 56//89
f 4//90 31//90 57//90
f 35//91 4//91 57//91
f 26//92 35//92 57//92
f 42//93 26//93 57//93
f 31//94 42//94 57//94
f 4//95 35//95 58//95
f 30//96 37//96 58//96
f 35//97 52//97 58//97
f 37//98 21//98 59//98
f 21//99 45//99 59//99
f 45//100 4//100 59//100
f 4//101 58//101 59//101
f 58//102 37//102 59//102
f 21//103 14//103 60//103
f 2//104 32//104 60//104
f 32//105 21//105 60//105
f 14//106 33//106 60//106
f 33//107 2//107 60//107
f 27//108 15//108 61//108
f 33//109 14//109 61//109
f 15//110 33//110 61//110
f 14//111 46//111 61//111
f 46//112 27//112 61//112
f 16//113 13//113 62//113
f 13//114 20//114 62//114
f 20//115 29//115 62//115
f 43//116 16//116 62//116
f 29//117 43//117 62//117
f 20//118 13//118 63//118
f 52//119 20//119 63//119
f 13//120 53//120 63//120
f 53//121 30//121 63//121
f 30//122 58//122 63//122
f 58//123 52//123 63//123
f 6//124 15//124 64//124
f 15//125 27//125 64//125
o convex_1
v -0.024216 0.017649 -0.018780
v 0.006033 -0.014730 0.028881
v 0.006033 -0.011639 0.030193
v 0.017893 0.003658 -0.027345
v -0.020157 -0.025306 -0.009272
v -0.016095 0.023735 0.024230
v -0.038234 -0.003523 0.016780
v 0.015843 0.025901 0.003350
v 0.026291 -0.023423 -0.002248
v -0.010123 -0.030064 0.014826
v -0.006974 0.032319 -0.010328
v -0.018105 -0.012511 -0.025085
v 0.026832 0.004589 0.012002
v -0.039854 0.010233 0.003004
v 0.021958 -0.021273 -0.020217
v 0.000196 0.012826 0.032743
v -0.019771 -0.004816 0.031291
v -0.034552 -0.006802 -0.011311
v -0.026262 0.027665 -0.000804
v 0.001427 0.030508 0.015456
v -0.033484 0.010698 0.023407
v -0.006699 0.012831 -0.027455
v 0.018977 0.018445 -0.016342
v -0.001837 -0.031153 0.000204
v -0.027368 -0.021784 0.011097
v 0.015278 0.011813 0.025094
v 0.018840 -0.008655 -0.028444
v 0.017039 -0.005900 0.025251
v -0.017327 -0.018939 0.025891
v 0.003724 -0.027362 0.018498
v -0.017556 -0.000469 -0.027640
v 0.000502 0.023215 -0.021857
v -0.018931 0.030506 0.009704
v 0.027781 -0.015961 0.007412
v -0.006300 -0.021833 -0.020325
v -0.038092 -0.009014 0.002509
v 0.003482 0.032465 -0.004946
v -0.036461 0.015494 0.014976
v -0.011888 0.008263 0.033458
v -0.033999 0.012963 -0.010595
v -0.004421 -0.011913 0.032281
v 0.005904 0.023104 0.024272
v 0.024393 0.015631 0.006062
v 0.005488 0.001064 0.033213
v -0.019187 0.025136 -0.016330
v -0.007511 -0.002002 -0.029769
v -0.011735 0.033696 0.002205
v -0.026664 0.000091 -0.021808
v -0.027356 -0.019337 -0.010428
v -0.018537 -0.029014 0.003759
v -0.006567 -0.015096 -0.026174
v -0.005508 -0.024005 0.024922
v 0.013778 -0.019613 0.020314
v -0.029685 -0.007489 0.024695
v 0.015559 0.020533 0.017438
v 0.002780 -0.030645 0.010457
v -0.031697 0.021857 -0.004309
v 0.024122 -0.024152 -0.012008
v -0.012139 -0.026370 -0.012523
v -0.041219 0.002302 0.008781
v -0.010526 0.019801 0.029199
v -0.028993 -0.021431 0.001656
v -0.031581 0.003985 0.026317
v 0.005800 0.025765 -0.017826
vn 0.2051 0.8829 -0.4224
vn 0.9703 0.0945 -0.2227
vn 0.9703 0.0946 -0.2227
vn 0.9703 0.0945 -0.2228
vn 0.5251 -0.3325 0.7834
vn 0.7693 0.0821 0.6336
vn -0.4632 -0.7575 0.4600
vn -0.3550 0.3021 -0.8847
vn 0.1486 0.3874 -0.9098
vn -0.1241 0.8899 0.4390
vn 0.8320 -0.0841 0.5484
vn -0.8127 -0.5465 0.2022
vn 0.3973 0.9089 0.1272
vn 0.5655 0.7971 -0.2118
vn -0.5161 0.6534 0.5539
vn -0.5991 0.7729 0.2090
vn -0.5021 0.7422 0.4440
vn -0.9206 0.0398 -0.3884
vn 0.1905 -0.3836 0.9036
vn -0.2344 -0.3823 0.8938
vn -0.1092 -0.0981 0.9892
vn 0.4331 0.4177 0.7987
vn 0.7780 0.6185 -0.1104
vn 0.4520 0.2377 0.8598
vn 0.4806 -0.1833 0.8576
vn 0.5930 0.0661 0.8025
vn 0.0376 0.0568 0.9977
vn 0.1966 -0.2188 0.9558
vn -0.0119 -0.0626 0.9980
vn -0.3646 0.8783 -0.3092
vn -0.2863 0.4662 -0.8371
vn -0.1127 0.7430 -0.6598
vn -0.1734 0.5578 -0.8116
vn 0.0606 0.1506 -0.9867
vn 0.0737 0.0943 -0.9928
vn -0.2314 -0.1918 -0.9538
vn -0.1810 0.1613 -0.9702
vn -0.3329 0.9152 -0.2270
vn -0.3870 0.9218 0.0208
vn -0.0894 0.9445 0.3160
vn 0.1303 0.9856 0.1077
vn 0.0354 0.9948 -0.0958
vn -0.6716 -0.2775 -0.6869
vn -0.5172 0.2150 -0.8284
vn -0.5396 -0.1511 -0.8282
vn -0.8123 0.0438 -0.5816
vn -0.6853 0.2155 -0.6957
vn -0.4541 -0.6629 -0.5953
vn -0.6634 -0.4243 -0.6163
vn -0.8213 -0.4918 -0.2891
vn -0.1266 -0.9920 0.0021
vn -0.4637 -0.8430 0.2726
vn 0.0602 -0.5347 -0.8429
vn -0.2138 -0.6452 -0.7335
vn 0.0159 -0.6551 -0.7553
vn -0.0187 -0.2660 -0.9638
vn -0.1506 -0.2718 -0.9505
vn -0.2787 -0.7619 0.5846
vn 0.2679 -0.6405 0.7197
vn 0.0354 -0.8640 0.5023
vn 0.1325 -0.5240 0.8414
vn -0.1465 -0.5046 0.8508
vn 0.5579 -0.3954 0.7297
vn 0.3620 -0.6305 0.6866
vn 0.5091 -0.7567 0.4101
vn 0.5826 -0.6842 0.4387
vn 0.6775 -0.3864 0.6259
vn -0.6890 -0.5550 0.4661
vn -0.4365 -0.3862 0.8126
vn -0.6050 -0.5981 0.5256
vn 0.5178 0.7959 0.3137
vn 0.7861 0.3933 0.4768
vn 0.4900 0.7739 0.4011
vn 0.5801 0.5268 0.6213
vn 0.7056 0.6573 0.2647
vn 0.7969 0.4131 0.4408
vn -0.0245 -0.9979 0.0605
vn 0.4242 -0.8547 0.2992
vn 0.0830 -0.9260 0.3683
vn -0.8232 0.5675 -0.0161
vn -0.7410 0.6704 0.0381
vn -0.8597 0.4239 -0.2850
vn -0.6784 0.5330 -0.5057
vn -0.5540 0.7439 -0.3736
vn -0.6346 0.5897 -0.4995
vn 0.9703 0.0944 -0.2227
vn 0.0869 -0.9327 -0.3500
vn 0.2346 -0.9704 -0.0576
vn 0.2963 -0.9551 0.0055
vn -0.3441 -0.7076 -0.6172
vn 0.0504 -0.9208 -0.3868
vn -0.3021 -0.7083 -0.6380
vn 0.0191 -0.8705 -0.4919
vn -0.2231 -0.9445 -0.2410
vn -0.1704 -0.9599 -0.2228
vn -0.9545 -0.0499 -0.2941
vn -0.9031 0.1080 0.4156
vn -0.9393 -0.3233 0.1151
vn -0.9572 -0.1181 -0.2641
vn -0.9504 0.2725 0.1496
vn -0.9062 0.1394 0.3992
vn 0.0050 0.7867 0.6173
vn -0.3850 0.4632 0.7982
vn -0.0783 0.3533 0.9322
vn -0.3599 0.3602 0.8606
vn 0.1205 0.5907 0.7979
vn 0.0341 0.7738 0.6325
vn -0.7975 -0.5923 0.1151
vn -0.6027 -0.7685 -0.2148
vn -0.7959 -0.5691 -0.2064
vn -0.5577 -0.8140 -0.1623
vn -0.5951 -0.8004 0.0725
vn -0.8244 0.0116 0.5659
vn -0.3512 0.0569 0.9346
vn -0.3800 0.2751 0.8831
vn -0.7151 -0.2123 0.6660
vn -0.5042 -0.2020 0.8396
vn 0.3815 0.5337 -0.7548
vn 0.0643 0.8030 -0.5925
vn 0.3421 0.5232 -0.7805
vn 0.4863 0.8079 -0.3328
s 1
f 75//126 101//126 128//126
f 73//127 68//127 77//127
f 68//127 73//127 79//127
f 77//127 68//127 87//128
f 68//127 79//127 91//129
f 67//130 66//130 92//130
f 77//131 90//131 92//131
f 89//132 74//132 93//132
f 65//133 86//133 95//133
f 68//134 86//134 96//134
f 70//135 84//135 97//135
f 73//127 77//127 98//127
f 77//136 92//136 98//136
f 89//137 71//137 100//137
f 84//138 72//138 101//138
f 72//139 87//139 101//139
f 85//140 70//140 102//140
f 97//141 83//141 102//141
f 70//142 97//142 102//142
f 82//143 78//143 104//143
f 66//144 67//144 105//144
f 81//145 93//145 105//145
f 103//146 81//146 105//146
f 80//147 90//147 106//147
f 87//148 72//148 107//148
f 77//127 87//128 107//127
f 90//149 80//149 108//149
f 67//150 92//150 108//150
f 92//151 90//151 108//151
f 80//152 103//152 108//152
f 105//153 67//153 108//153
f 103//154 105//154 108//154
f 83//155 75//155 109//155
f 86//156 65//156 109//156
f 75//157 96//157 109//157
f 96//158 86//158 109//158
f 86//159 68//159 110//159
f 68//160 91//160 110//160
f 76//161 95//161 110//161
f 95//162 86//162 110//162
f 75//163 83//163 111//163
f 83//164 97//164 111//164
f 97//165 84//165 111//165
f 84//166 101//166 111//166
f 101//167 75//167 111//167
f 76//168 82//168 112//168
f 65//169 95//169 112//169
f 95//170 76//170 112//170
f 82//171 104//171 112//171
f 104//172 65//172 112//172
f 76//173 69//173 113//173
f 82//174 76//174 113//174
f 100//175 82//175 113//175
f 88//176 74//176 114//176
f 74//177 89//177 114//177
f 91//178 79//178 115//178
f 99//179 76//179 115//179
f 79//180 99//180 115//180
f 110//181 91//181 115//181
f 76//182 110//182 115//182
f 93//183 74//183 116//183
f 94//184 66//184 116//184
f 74//185 94//185 116//185
f 66//186 105//186 116//186
f 105//187 93//187 116//187
f 92//188 66//188 117//188
f 66//189 94//189 117//189
f 94//190 73//190 117//190
f 73//191 98//191 117//191
f 98//192 92//192 117//192
f 71//193 89//193 118//193
f 93//194 81//194 118//194
f 89//195 93//195 118//195
f 72//196 84//196 119//196
f 90//197 77//197 119//197
f 84//198 106//198 119//198
f 106//199 90//199 119//199
f 107//200 72//200 119//200
f 77//201 107//201 119//201
f 74//202 88//202 120//202
f 73//203 94//203 120//203
f 94//204 74//204 120//204
f 78//205 102//205 121//205
f 102//206 83//206 121//206
f 104//207 78//207 121//207
f 65//208 104//208 121//208
f 83//209 109//209 121//209
f 109//210 65//210 121//210
f 79//127 73//127 122//211
f 88//212 79//212 122//212
f 120//213 88//213 122//213
f 73//214 120//214 122//214
f 69//215 76//215 123//215
f 79//216 88//216 123//216
f 76//217 99//217 123//217
f 99//218 79//218 123//218
f 114//219 69//219 123//219
f 88//220 114//220 123//220
f 78//221 82//221 124//221
f 71//222 85//222 124//222
f 100//223 71//223 124//223
f 82//224 100//224 124//224
f 102//225 78//225 124//225
f 85//226 102//226 124//226
f 84//227 70//227 125//227
f 70//228 85//228 125//228
f 103//229 80//229 125//229
f 85//230 103//230 125//230
f 80//231 106//231 125//231
f 106//232 84//232 125//232
f 89//233 100//233 126//233
f 113//234 69//234 126//234
f 100//235 113//235 126//235
f 69//236 114//236 126//236
f 114//237 89//237 126//237
f 85//238 71//238 127//238
f 81//239 103//239 127//239
f 103//240 85//240 127//240
f 71//241 118//241 127//241
f 118//242 81//242 127//242
f 87//243 68//243 128//243
f 96//244 75//244 128//244
f 68//245 96//245 128//245
f 101//246 87//246 128//246
