# Blender 4.3.2
# www.blender.org
mtllib 101 Bread.mtl
o convex_0
v 0.013537 0.038310 -0.010623
v -0.022534 -0.041886 0.005411
v -0.022534 -0.041886 0.006208
v 0.086511 -0.017820 -0.003401
v 0.007915 0.009433 0.035086
v -0.081090 0.001412 -0.027467
v -0.072259 0.018255 0.011019
v 0.054431 -0.004189 -0.028272
v 0.079294 0.027883 -0.005008
v 0.059254 -0.018619 0.023851
v -0.048212 -0.025034 0.023047
v -0.075469 -0.026641 -0.018644
v -0.012107 0.041514 0.011824
v 0.070480 0.023074 0.013424
v 0.060052 0.019062 -0.025860
v -0.040994 0.032693 -0.015435
v 0.038399 -0.033057 -0.008218
v -0.079494 -0.022630 0.003803
v 0.001513 -0.026632 0.030269
v -0.038582 0.007029 0.031074
v 0.036786 -0.033856 0.016634
v -0.054614 -0.029844 -0.020245
v -0.081888 0.019062 -0.006617
v 0.079294 -0.017013 -0.017840
v -0.013720 0.034299 0.023053
v -0.008914 0.024679 -0.025867
v 0.063261 0.006230 0.025458
v 0.030367 0.031087 0.021445
v 0.090536 0.007029 -0.007414
v -0.061849 -0.008998 -0.029076
v -0.073873 0.003825 0.015033
v -0.035372 -0.041886 0.007817
v -0.052220 0.034299 0.002208
v 0.077697 0.020660 -0.021049
v -0.083501 0.014243 -0.021853
v -0.021736 -0.033856 -0.016238
v 0.069682 -0.028247 0.002201
v 0.077697 -0.013809 0.014229
v -0.086711 0.000621 -0.005015
v -0.010511 0.043128 -0.000996
v 0.035190 0.036704 0.008614
v 0.062446 -0.020225 -0.020251
v 0.060052 0.030288 -0.017035
v -0.016132 -0.037068 0.020647
v 0.081705 -0.001776 -0.022657
v -0.050606 0.028682 0.015830
v 0.043205 -0.000169 0.031074
v -0.061034 -0.035462 -0.010623
v -0.069049 0.008635 -0.028272
v -0.082686 -0.009797 -0.026664
v 0.078496 0.009433 0.013424
v -0.022534 -0.040271 -0.006617
v 0.031980 -0.037068 0.005405
v 0.033576 0.001412 -0.029076
v 0.029568 0.039110 -0.002603
v -0.010511 0.038310 -0.013833
v -0.077880 -0.028247 -0.001806
v -0.029751 0.001412 0.032674
v 0.040794 -0.024236 0.027060
v -0.054614 -0.033057 0.012627
v -0.077082 -0.017820 0.010222
v -0.081888 0.007828 0.007013
v 0.068866 -0.025842 -0.012231
v 0.065656 -0.025842 0.013424
vn 0.2760 -0.7569 0.5923
vn -0.0987 0.3626 0.9267
vn 0.2635 0.4835 0.8348
vn 0.0806 0.8332 0.5470
vn 0.0669 0.4812 0.8740
vn 0.1798 0.3841 0.9056
vn 0.0222 -0.3834 -0.9233
vn -0.4034 -0.1063 0.9088
vn -0.4179 0.2865 0.8621
vn -0.0000 -1.0000 -0.0000
vn -0.5059 0.8038 0.3130
vn 0.8255 0.4794 -0.2981
vn -0.3417 0.8911 -0.2985
vn -0.3858 0.8906 -0.2408
vn 0.4856 -0.1342 0.8638
vn 0.8859 -0.0694 0.4587
vn -0.9668 0.2548 0.0218
vn -0.1989 0.9751 0.0980
vn -0.2183 0.9495 -0.2253
vn 0.2906 0.8827 0.3693
vn 0.2622 0.8439 0.4680
vn 0.1203 0.8920 0.4357
vn 0.0355 -0.4328 -0.9008
vn 0.1987 -0.3572 -0.9127
vn 0.0996 -0.7736 -0.6258
vn 0.0945 -0.7694 -0.6317
vn 0.0959 -0.7705 -0.6302
vn 0.0421 -0.5122 -0.8578
vn 0.0503 0.6172 -0.7852
vn 0.3623 0.8358 -0.4125
vn 0.1564 0.6104 -0.7765
vn -0.1383 -0.5348 0.8336
vn 0.0795 -0.9556 0.2836
vn 0.0959 -0.7554 0.6482
vn 0.0982 -0.7517 0.6522
vn 0.0950 -0.7568 0.6467
vn 0.0377 -0.9528 0.3012
vn 0.1968 0.0540 -0.9790
vn 0.8538 -0.2749 -0.4421
vn 0.2182 -0.3254 -0.9201
vn 0.8937 -0.2089 -0.3971
vn 0.2517 0.1138 -0.9611
vn 0.8007 0.1839 -0.5701
vn -0.3734 0.3864 0.8434
vn -0.2256 0.8340 0.5035
vn -0.2379 0.4673 0.8515
vn -0.2534 0.8834 0.3942
vn -0.4685 0.7958 0.3836
vn 0.0728 -0.1447 0.9868
vn 0.3003 -0.1097 0.9475
vn 0.1801 0.2663 0.9469
vn -0.1671 -0.7989 -0.5778
vn -0.1205 0.5730 -0.8106
vn -0.0754 0.0147 -0.9970
vn -0.2665 0.3439 -0.9004
vn -0.1311 0.5813 -0.8030
vn -0.1396 -0.4738 -0.8695
vn -0.1127 -0.0551 -0.9921
vn -0.0889 -0.4145 -0.9057
vn -0.8363 0.0802 -0.5424
vn -0.9828 0.0036 -0.1845
vn 0.7572 0.4450 0.4782
vn 0.5448 0.3202 0.7750
vn 0.8159 0.3906 0.4263
vn 0.6191 0.0059 0.7853
vn 0.8652 -0.0124 0.5013
vn -0.0249 -0.9908 -0.1330
vn 0.0841 -0.8323 -0.5479
vn -0.0335 -0.8303 -0.5564
vn -0.0509 -0.8474 -0.5286
vn -0.1011 -0.9748 -0.1990
vn 0.0880 -0.9961 -0.0000
vn 0.0890 -0.9671 0.2385
vn 0.2382 -0.9560 0.1715
vn 0.0873 -0.9873 -0.1326
vn 0.1083 -0.9663 -0.2335
vn 0.0620 0.0882 -0.9942
vn 0.0131 0.1601 -0.9870
vn 0.0111 -0.1015 -0.9948
vn 0.0021 0.1404 -0.9901
vn -0.0048 0.0436 -0.9990
vn 0.0856 0.9600 -0.2668
vn 0.1043 0.9851 0.1370
vn 0.2236 0.9699 0.0959
vn 0.1104 0.9817 0.1552
vn 0.1167 0.9379 -0.3268
vn 0.2112 0.9667 -0.1447
vn -0.0810 0.6543 -0.7519
vn 0.0469 0.9352 -0.3510
vn -0.1522 0.9253 -0.3473
vn 0.0714 0.8418 -0.5350
vn 0.0416 0.6640 -0.7466
vn -0.9566 -0.2909 0.0160
vn -0.4541 -0.8784 -0.1488
vn -0.3301 -0.9344 0.1338
vn -0.8744 -0.4550 -0.1686
vn -0.9546 -0.2959 -0.0351
vn -0.0367 -0.1259 0.9914
vn -0.1470 -0.2461 0.9580
vn -0.2715 -0.1562 0.9497
vn -0.0922 0.1362 0.9864
vn 0.0992 -0.7500 0.6539
vn 0.2219 -0.1820 0.9579
vn 0.0907 -0.1727 0.9808
vn -0.2143 -0.7059 0.6752
vn -0.2055 -0.7741 0.5988
vn -0.4811 -0.6848 0.5474
vn -0.3480 -0.9005 0.2609
vn -0.4302 -0.1346 0.8926
vn -0.8973 -0.1168 0.4257
vn -0.8975 -0.1173 0.4252
vn -0.8966 -0.1149 0.4276
vn -0.4498 -0.5525 0.7018
vn -0.4792 -0.6065 0.6345
vn -0.7400 0.5190 0.4278
vn -0.6079 0.2752 0.7448
vn -0.9394 0.2646 0.2181
vn -0.7183 -0.0478 0.6941
vn -0.8965 -0.1144 0.4280
vn 0.5158 -0.8015 -0.3026
vn 0.4773 -0.8620 -0.1707
vn 0.2302 -0.7008 -0.6752
vn 0.1013 -0.7749 -0.6239
vn 0.2105 -0.9623 -0.1723
vn 0.2029 -0.9611 -0.1874
vn 0.5751 -0.7330 0.3633
vn 0.2859 -0.9108 0.2978
vn 0.4956 -0.5413 0.6793
vn 0.6145 -0.6452 0.4540
vn 0.3209 -0.6749 0.6645
s 1
f 59//1 21//1 64//1
f 20//2 5//2 25//2
f 27//3 14//3 28//3
f 13//4 25//4 28//4
f 25//5 5//5 28//5
f 5//6 27//6 28//6
f 8//7 22//7 30//7
f 11//8 20//8 31//8
f 20//9 7//9 31//9
f 2//10 3//10 32//10
f 23//11 7//11 33//11
f 9//12 29//12 34//12
f 33//13 16//13 35//13
f 23//14 33//14 35//14
f 27//15 10//15 38//15
f 4//16 29//16 38//16
f 23//17 35//17 39//17
f 33//18 13//18 40//18
f 16//19 33//19 40//19
f 14//20 9//20 41//20
f 28//21 14//21 41//21
f 13//22 28//22 41//22
f 22//23 8//23 42//23
f 8//24 24//24 42//24
f 17//25 36//26 42//27
f 36//28 22//28 42//28
f 15//29 26//29 43//29
f 9//30 34//30 43//30
f 34//31 15//31 43//31
f 19//32 11//32 44//32
f 3//33 21//33 44//33
f 21//34 19//35 44//36
f 32//37 3//37 44//37
f 8//38 15//38 45//38
f 4//39 24//39 45//39
f 24//40 8//40 45//40
f 29//41 4//41 45//41
f 15//42 34//42 45//42
f 34//43 29//43 45//43
f 7//44 20//44 46//44
f 25//45 13//45 46//45
f 20//46 25//46 46//46
f 13//47 33//47 46//47
f 33//48 7//48 46//48
f 5//49 19//49 47//49
f 10//50 27//50 47//50
f 27//51 5//51 47//51
f 12//52 22//52 48//52
f 16//53 26//53 49//53
f 30//54 6//54 49//54
f 6//55 35//55 49//55
f 35//56 16//56 49//56
f 22//57 12//57 50//57
f 6//58 30//58 50//58
f 30//59 22//59 50//59
f 35//60 6//60 50//60
f 39//61 35//61 50//61
f 9//62 14//62 51//62
f 14//63 27//63 51//63
f 29//64 9//64 51//64
f 27//65 38//65 51//65
f 38//66 29//66 51//66
f 2//67 32//67 52//67
f 36//68 17//68 52//68
f 22//69 36//69 52//69
f 48//70 22//70 52//70
f 32//71 48//71 52//71
f 3//72 2//72 53//72
f 21//73 3//73 53//73
f 37//74 21//74 53//74
f 2//75 52//75 53//75
f 52//76 17//76 53//76
f 15//77 8//77 54//77
f 26//78 15//78 54//78
f 8//79 30//79 54//79
f 49//80 26//80 54//80
f 30//81 49//81 54//81
f 1//82 40//82 55//82
f 40//83 13//83 55//83
f 41//84 9//84 55//84
f 13//85 41//85 55//85
f 43//86 1//86 55//86
f 9//87 43//87 55//87
f 26//88 16//88 56//88
f 40//89 1//89 56//89
f 16//90 40//90 56//90
f 1//91 43//91 56//91
f 43//92 26//92 56//92
f 18//93 39//93 57//93
f 12//94 48//94 57//94
f 48//95 32//95 57//95
f 50//96 12//96 57//96
f 39//97 50//97 57//97
f 19//98 5//98 58//98
f 11//99 19//99 58//99
f 20//100 11//100 58//100
f 5//101 20//101 58//101
f 19//35 21//34 59//102
f 10//103 47//103 59//103
f 47//104 19//104 59//104
f 44//105 11//105 60//105
f 32//106 44//106 60//106
f 18//107 57//107 60//107
f 57//108 32//108 60//108
f 11//109 31//109 61//109
f 39//110 18//111 61//112
f 60//113 11//113 61//113
f 18//114 60//114 61//114
f 7//115 23//115 62//115
f 31//116 7//116 62//116
f 23//117 39//117 62//117
f 61//118 31//118 62//118
f 39//110 61//112 62//119
f 24//120 4//120 63//120
f 4//121 37//121 63//121
f 42//122 24//122 63//122
f 17//25 42//27 63//123
f 37//124 53//124 63//124
f 53//125 17//125 63//125
f 37//126 4//126 64//126
f 21//127 37//127 64//127
f 38//128 10//128 64//128
f 4//129 38//129 64//129
f 10//130 59//130 64//130
