# Blender 4.3.2
# www.blender.org
mtllib 103 toothpaste.mtl
o convex_0
v -0.019302 0.065929 -0.001560
v 0.026658 -0.098974 0.000596
v 0.026115 -0.099510 0.001137
v -0.024170 -0.100063 -0.001019
v -0.003081 0.064286 0.018985
v 0.006107 0.065374 -0.017785
v 0.016922 0.065910 0.006543
v 0.003401 -0.048147 -0.011831
v -0.010649 0.058878 -0.016700
v -0.004162 -0.046522 0.011953
v -0.002000 0.094056 -0.002638
v -0.016059 0.064286 0.011953
v 0.016922 0.063215 -0.008048
v 0.006107 0.064305 0.017903
v -0.023627 -0.100598 0.001137
v 0.009350 -0.040580 0.011953
v 0.026115 -0.100063 -0.001019
v -0.006324 -0.031924 -0.012916
v -0.017683 0.062680 -0.009671
v 0.002863 0.092948 0.004382
v -0.014978 -0.042185 0.009789
v 0.005025 -0.078414 0.007628
v 0.026658 -0.073026 0.001137
v -0.024712 -0.070312 0.000059
v -0.005786 -0.077879 -0.007507
v 0.018003 -0.047057 -0.008589
v -0.004162 0.064286 -0.018867
v 0.013137 0.061591 0.013575
v -0.006324 0.092948 0.002219
v 0.012593 0.064305 -0.013998
v 0.018542 0.064305 -0.001019
v 0.002863 0.092432 -0.004802
v 0.019085 -0.043274 0.008166
v -0.019845 0.063770 0.003301
v 0.005025 0.006426 -0.015618
v -0.012815 0.063215 0.015194
v 0.026115 -0.074630 -0.002101
v -0.005243 0.092412 -0.004802
v -0.011734 -0.045434 -0.010753
v -0.024170 -0.078414 0.002219
v -0.003081 0.001553 0.015740
v -0.023089 -0.080038 -0.003183
v -0.013353 0.064839 -0.014540
v -0.019845 0.064305 -0.003724
v 0.013679 -0.080573 -0.006429
v 0.013137 -0.043809 -0.010753
v -0.006324 0.059967 0.018444
v 0.005568 0.019955 0.016276
v -0.002000 0.092948 0.005464
v -0.012816 -0.078968 0.006543
v 0.014760 0.064839 0.011411
v 0.005026 0.092432 -0.001016
v -0.018764 0.061056 0.007625
v 0.009350 -0.098974 -0.002101
v -0.024712 -0.077343 -0.001560
v 0.018003 0.062145 0.005464
v 0.003401 -0.098974 0.002219
v -0.003081 0.001018 -0.015618
v -0.011734 -0.043828 0.010871
v 0.001782 0.058342 -0.018863
v 0.009893 0.058897 -0.016159
v 0.014760 -0.041650 0.010329
v 0.014760 -0.075185 0.007084
v 0.004482 -0.047611 0.011953
vn 0.1625 -0.1125 0.9803
vn 0.7690 -0.6192 0.1590
vn 0.0212 -0.9683 0.2487
vn -0.0000 -0.9706 -0.2407
vn 0.7130 -0.0146 0.7010
vn -0.0856 -0.1175 -0.9894
vn 0.0483 0.4368 -0.8983
vn 0.5080 0.4213 -0.7512
vn 0.7678 0.4229 -0.4812
vn 0.6515 -0.0134 0.7585
vn 0.5201 -0.0146 0.8540
vn 0.6824 0.0010 0.7310
vn -0.9027 0.4215 0.0863
vn -0.8462 0.4050 0.3462
vn -0.5629 0.4307 0.7055
vn 0.9504 -0.0132 -0.3108
vn 0.9859 0.0035 -0.1672
vn 0.5477 -0.0356 -0.8359
vn 0.8108 0.0288 -0.5846
vn 0.9711 0.0547 -0.2323
vn 0.9799 0.0549 -0.1916
vn -0.3788 0.9165 -0.1283
vn -0.0020 0.7978 -0.6029
vn -0.0011 0.4472 -0.8944
vn -0.1851 -0.1314 -0.9739
vn -0.1016 -0.1175 -0.9879
vn -0.2773 -0.0518 -0.9594
vn -0.9711 -0.0353 0.2360
vn -0.4982 -0.0544 0.8654
vn -0.9870 -0.0238 0.1588
vn -0.7082 -0.0079 0.7060
vn -0.5598 -0.0310 0.8281
vn -0.3732 -0.0797 -0.9243
vn -0.4532 -0.0460 -0.8902
vn -0.4151 0.1376 -0.8993
vn -0.7654 0.4025 -0.5022
vn -0.3696 0.4042 -0.8367
vn -0.6459 -0.0164 -0.7633
vn -0.8900 0.4427 -0.1089
vn -0.9566 0.2905 0.0221
vn -0.9993 0.0362 0.0028
vn -0.8163 0.4084 -0.4084
vn -0.8772 0.4492 -0.1693
vn 0.0334 -0.1539 -0.9875
vn 0.3615 -0.0774 -0.9291
vn 0.1417 -0.0727 -0.9872
vn 0.3071 -0.0407 -0.9508
vn 0.3133 -0.0407 -0.9488
vn 0.3167 -0.0406 -0.9477
vn 0.2470 -0.1096 -0.9628
vn 0.1590 -0.1130 -0.9808
vn -0.3736 0.1664 0.9125
vn -0.4617 -0.0360 0.8863
vn -0.0972 -0.0514 0.9939
vn 0.1170 -0.0378 0.9924
vn 0.0479 -0.0516 0.9975
vn 0.1052 0.4210 0.9009
vn 0.0301 0.9903 0.1354
vn 0.1954 0.4366 0.8782
vn -0.1011 0.9857 0.1348
vn -0.3699 0.4077 0.8348
vn -0.5411 0.4328 0.7210
vn -0.0526 -0.2173 0.9747
vn -0.0554 -0.1498 0.9872
vn 0.7802 0.4411 0.4435
vn 0.5309 0.4101 0.7416
vn 0.5738 0.2358 0.7843
vn 0.7840 0.0214 0.6204
vn 0.2258 0.9742 -0.0027
vn 0.8388 0.4595 0.2921
vn 0.8968 0.4309 0.1006
vn 0.8691 0.4177 -0.2650
vn 0.2545 0.9561 -0.1453
vn 0.7850 0.4276 -0.4483
vn -0.9653 0.0288 0.2594
vn -0.8937 0.2440 0.3766
vn -0.9447 0.0239 0.3270
vn -0.8521 0.0128 0.5232
vn -0.0000 -0.7046 -0.7096
vn -0.0226 -0.2633 -0.9644
vn 0.0471 -0.2391 -0.9698
vn 0.0215 -0.2337 -0.9721
vn -0.9954 -0.0215 0.0936
vn -0.7338 -0.0337 -0.6786
vn -0.7470 -0.0010 -0.6648
vn -0.7129 -0.0071 -0.7012
vn -0.9371 0.0269 -0.3480
vn -0.9898 0.0319 -0.1385
vn 0.9603 0.2309 0.1567
vn 0.9929 0.0603 0.1026
vn 0.8943 0.1346 0.4268
vn 0.8850 0.0418 0.4637
vn 0.0158 -0.7232 0.6904
vn 0.0399 -0.2572 0.9655
vn -0.0235 -0.2526 0.9673
vn -0.0216 -0.0796 -0.9966
vn 0.0460 -0.0689 -0.9966
vn 0.0471 -0.0705 -0.9964
vn 0.0411 -0.0615 -0.9973
vn -0.2500 -0.0547 -0.9667
vn -0.2529 -0.0539 -0.9660
vn -0.2512 -0.0544 -0.9664
vn -0.2535 -0.0539 -0.9658
vn -0.3540 -0.0855 0.9313
vn -0.1667 -0.0737 0.9832
vn -0.3392 -0.0509 0.9394
vn -0.2400 -0.0582 0.9690
vn -0.1804 -0.1148 0.9769
vn -0.2592 -0.1102 0.9595
vn 0.0945 0.0939 -0.9911
vn 0.3033 -0.0406 -0.9520
vn 0.0399 -0.0599 -0.9974
vn -0.0514 -0.0521 -0.9973
vn 0.5128 0.0853 -0.8543
vn 0.6014 -0.0110 -0.7988
vn 0.6309 -0.0050 -0.7759
vn 0.3375 -0.0388 -0.9405
vn 0.3854 -0.0365 -0.9220
vn 0.4287 -0.0591 0.9015
vn 0.4386 -0.0284 0.8982
vn 0.3476 -0.0386 0.9369
vn 0.2774 -0.0512 0.9594
vn 0.1158 -0.1846 0.9760
vn 0.3004 -0.0919 0.9494
vn 0.2693 -0.0928 0.9586
vn -0.0175 -0.1393 0.9901
vn -0.0099 -0.0783 0.9969
vn 0.0940 -0.0651 0.9934
vn 0.0763 -0.0649 0.9950
vn 0.1004 -0.1366 0.9855
s 1
f 63//1 16//1 64//1
f 2//2 3//2 17//2
f 3//3 15//3 17//3
f 15//4 4//4 17//4
f 3//5 2//5 23//5
f 18//6 8//6 25//6
f 6//7 27//7 32//7
f 30//8 6//8 32//8
f 13//9 30//9 32//9
f 3//10 23//10 33//10
f 28//11 14//11 33//11
f 23//12 28//12 33//12
f 29//13 1//13 34//13
f 12//14 29//14 34//14
f 29//15 12//15 36//15
f 2//16 17//16 37//16
f 23//17 2//17 37//17
f 17//18 26//18 37//18
f 30//19 13//19 37//19
f 13//20 31//20 37//20
f 31//21 23//21 37//21
f 29//22 11//22 38//22
f 11//23 32//23 38//23
f 32//24 27//24 38//24
f 25//25 4//25 39//25
f 18//26 25//26 39//26
f 9//27 27//27 39//27
f 4//28 15//28 40//28
f 15//29 21//29 40//29
f 24//30 4//30 40//30
f 36//31 12//31 40//31
f 21//32 36//32 40//32
f 39//33 4//33 42//33
f 9//34 39//34 42//34
f 27//35 9//35 43//35
f 19//36 38//36 43//36
f 38//37 27//37 43//37
f 9//38 42//38 43//38
f 1//39 29//39 44//39
f 34//40 1//40 44//40
f 24//41 34//41 44//41
f 38//42 19//42 44//42
f 29//43 38//43 44//43
f 25//44 8//44 45//44
f 26//45 17//45 46//45
f 8//46 35//46 46//46
f 35//47 6//48 46//49
f 17//50 45//50 46//50
f 45//51 8//51 46//51
f 5//52 36//52 47//52
f 36//53 21//53 47//53
f 41//54 5//54 47//54
f 14//55 5//55 48//55
f 5//56 41//56 48//56
f 5//57 14//57 49//57
f 20//58 11//58 49//58
f 14//59 20//59 49//59
f 11//60 29//60 49//60
f 36//61 5//61 49//61
f 29//62 36//62 49//62
f 15//63 22//63 50//63
f 22//64 10//64 50//64
f 7//65 20//65 51//65
f 20//66 14//66 51//66
f 14//67 28//67 51//67
f 28//68 23//68 51//68
f 11//69 20//69 52//69
f 20//70 7//70 52//70
f 7//71 31//71 52//71
f 31//72 13//72 52//72
f 32//73 11//73 52//73
f 13//74 32//74 52//74
f 34//75 24//75 53//75
f 12//76 34//76 53//76
f 24//77 40//77 53//77
f 40//78 12//78 53//78
f 17//79 4//79 54//79
f 4//80 25//80 54//80
f 45//81 17//81 54//81
f 25//82 45//82 54//82
f 4//83 24//83 55//83
f 42//84 4//84 55//84
f 19//85 43//85 55//85
f 43//86 42//86 55//86
f 44//87 19//87 55//87
f 24//88 44//88 55//88
f 31//89 7//89 56//89
f 23//90 31//90 56//90
f 7//91 51//91 56//91
f 51//92 23//92 56//92
f 15//93 3//93 57//93
f 3//94 22//94 57//94
f 22//95 15//95 57//95
f 8//96 18//96 58//96
f 35//97 8//98 58//99
f 18//100 39//101 58//102
f 39//101 27//103 58//102
f 21//104 15//104 59//104
f 10//105 41//105 59//105
f 47//106 21//106 59//106
f 41//107 47//107 59//107
f 50//108 10//108 59//108
f 15//109 50//109 59//109
f 27//110 6//110 60//110
f 6//48 35//47 60//111
f 35//97 58//99 60//112
f 58//113 27//113 60//113
f 6//114 30//114 61//114
f 37//115 26//115 61//115
f 30//116 37//116 61//116
f 46//117 6//117 61//117
f 26//118 46//118 61//118
f 3//119 33//119 62//119
f 33//120 14//120 62//120
f 14//121 48//121 62//121
f 48//122 16//122 62//122
f 22//123 3//123 63//123
f 3//124 62//124 63//124
f 62//125 16//125 63//125
f 10//126 22//126 64//126
f 41//127 10//127 64//127
f 16//128 48//128 64//128
f 48//129 41//129 64//129
f 22//130 63//130 64//130
